<svg width="106" height="110" viewBox="0 0 106 110" fill="none" xmlns="http://www.w3.org/2000/svg">
<g filter="url(#filter0_d_12_5789)">
<path d="M61.1876 43.3649V61.2312C61.1876 61.6546 60.8385 62 60.4105 62H46.0838C45.6558 62 45.3066 61.6546 45.3066 61.2312V40.7688C45.3066 40.3454 45.6558 40 46.0838 40H57.7805L61.1876 43.3649Z" fill="white"/>
<path d="M61.1876 43.3649V61.2312C61.1876 61.6546 60.8385 62 60.4105 62H59.3011C59.7291 62 60.0782 61.6546 60.0782 61.2312V43.3649L56.6768 40H57.7862L61.1876 43.3649Z" fill="#E5E5E5"/>
<path d="M61.1876 43.3649H58.5577C58.1297 43.3649 57.7805 43.0195 57.7805 42.5961V40L61.1876 43.3649Z" fill="#CECECE"/>
<path d="M57.9041 50.4179H48.6796C48.3699 50.4179 48.1165 50.1672 48.1165 49.8608C48.1165 49.5543 48.3699 49.3036 48.6796 49.3036H57.9041C58.2138 49.3036 58.4673 49.5543 58.4673 49.8608C58.4673 50.1727 58.2195 50.4179 57.9041 50.4179Z" fill="#CECECE"/>
<path d="M57.9041 53.2758H48.6796C48.3699 53.2758 48.1165 53.0251 48.1165 52.7187C48.1165 52.4123 48.3699 52.1616 48.6796 52.1616H57.9041C58.2138 52.1616 58.4673 52.4123 58.4673 52.7187C58.4673 53.0306 58.2195 53.2758 57.9041 53.2758Z" fill="#CECECE"/>
<path d="M57.9041 56.1337H48.6796C48.3699 56.1337 48.1165 55.883 48.1165 55.5766C48.1165 55.2702 48.3699 55.0195 48.6796 55.0195H57.9041C58.2138 55.0195 58.4673 55.2702 58.4673 55.5766C58.4673 55.8886 58.2195 56.1337 57.9041 56.1337Z" fill="#CECECE"/>
<path d="M51.7997 47.5209H44V44.3955C44 44.1615 44.1915 43.9666 44.4336 43.9666H51.7997C52.0362 43.9666 52.2333 44.156 52.2333 44.3955V47.0919C52.2333 47.3259 52.0419 47.5209 51.7997 47.5209Z" fill="#F55B4B"/>
<path d="M52.2333 47.0362V47.0919C52.2333 47.3259 52.0419 47.5209 51.7997 47.5209H44V44.3955C44 44.1615 44.1915 43.9666 44.4336 43.9666H44.6533V45.0808C44.6533 46.1615 45.5374 47.0418 46.6356 47.0418H52.2333V47.0362Z" fill="#DD4E43"/>
<path d="M44 47.5209L45.3065 48.9916V47.5209H44Z" fill="#DB1B1B"/>
<path d="M46.1118 46.4178V46.7911H44.9348V46.4178H45.222V44.9527H44.9348V44.5794H46.1118C46.3878 44.5794 46.5961 44.6407 46.7482 44.7688C46.9002 44.897 46.9734 45.0697 46.9734 45.2814C46.9734 45.4039 46.9453 45.5153 46.8946 45.6156C46.8439 45.7159 46.7763 45.7939 46.6919 45.844C46.6074 45.8997 46.5173 45.9332 46.4103 45.9555C46.3033 45.9777 46.1738 45.9833 46.0161 45.9833H45.8021V46.4123H46.1118V46.4178ZM45.8021 45.6156H45.8865C46.0837 45.6156 46.2132 45.5822 46.2695 45.5209C46.3258 45.4596 46.354 45.3761 46.354 45.2814C46.354 45.2034 46.3314 45.1309 46.292 45.0752C46.2526 45.0195 46.2075 44.9861 46.1569 44.9694C46.1062 44.9582 46.0217 44.9471 45.9034 44.9471H45.7964V45.6156H45.8021Z" fill="white"/>
<path d="M47.1086 46.7911V46.4178H47.4465V44.9527H47.1086V44.5794H48.1674C48.3926 44.5794 48.5672 44.5905 48.708 44.6184C48.8432 44.6463 48.9727 44.7075 49.0966 44.7967C49.2205 44.8914 49.3218 45.0139 49.3951 45.1699C49.4683 45.3259 49.5077 45.4986 49.5077 45.688C49.5077 45.844 49.4795 45.9889 49.4288 46.1282C49.3782 46.2674 49.3106 46.3788 49.2317 46.468C49.1529 46.5516 49.0628 46.624 48.9502 46.6741C48.8432 46.7243 48.7418 46.7577 48.6517 46.7744C48.5616 46.7911 48.4208 46.7967 48.2293 46.7967H47.1086V46.7911ZM48.0322 46.4178H48.173C48.342 46.4178 48.4771 46.3956 48.5785 46.351C48.6798 46.3064 48.7587 46.2284 48.815 46.1226C48.877 46.0112 48.9051 45.8719 48.9051 45.6936C48.9051 45.5265 48.877 45.3816 48.815 45.2646C48.7531 45.1477 48.6742 45.0641 48.5672 45.0195C48.4658 44.9749 48.3307 44.9527 48.173 44.9527H48.0322V46.4178Z" fill="white"/>
<path d="M49.7668 46.7911V46.4178H50.0878V44.9527H49.7668V44.5794H51.7717V45.2646H51.3437V44.9582H50.6735V45.4708H51.1578V45.844H50.6735V46.4178H51.0171V46.7911H49.7668Z" fill="white"/>
<path d="M50.9438 48.5571H45.3123V47.5209H51.828V47.688C51.8223 48.1671 51.4281 48.5571 50.9438 48.5571Z" fill="#E5E5E5"/>
</g>
<defs>
<filter id="filter0_d_12_5789" x="0" y="0" width="105.188" height="110" filterUnits="userSpaceOnUse" color-interpolation-filters="sRGB">
<feFlood flood-opacity="0" result="BackgroundImageFix"/>
<feColorMatrix in="SourceAlpha" type="matrix" values="0 0 0 0 0 0 0 0 0 0 0 0 0 0 0 0 0 0 127 0" result="hardAlpha"/>
<feOffset dy="4"/>
<feGaussianBlur stdDeviation="22"/>
<feComposite in2="hardAlpha" operator="out"/>
<feColorMatrix type="matrix" values="0 0 0 0 0 0 0 0 0 0 0 0 0 0 0 0 0 0 0.12 0"/>
<feBlend mode="normal" in2="BackgroundImageFix" result="effect1_dropShadow_12_5789"/>
<feBlend mode="normal" in="SourceGraphic" in2="effect1_dropShadow_12_5789" result="shape"/>
</filter>
</defs>
</svg>
