<svg width="154" height="44" viewBox="0 0 154 44" fill="none" xmlns="http://www.w3.org/2000/svg">
<g clip-path="url(#clip0_121_123)">
<path d="M36.9029 25.6433C37.4015 25.6434 37.9016 25.6364 38.3999 25.6489L43.1559 25.6425C43.9395 25.6419 44.7603 25.6946 45.5402 25.6354C46.4681 25.611 47.4015 25.643 48.3307 25.641C48.8938 25.6396 49.8639 25.5698 50.3849 25.6684C50.4168 25.6746 50.4486 25.6816 50.4801 25.6899C50.5116 25.6984 50.5427 25.7077 50.5736 25.7182C50.6043 25.7288 50.6349 25.7404 50.6647 25.7532C50.6947 25.766 50.7241 25.7798 50.7532 25.7946C50.7821 25.8095 50.8102 25.8253 50.8381 25.8422C50.8659 25.8594 50.8932 25.8772 50.9195 25.8961C50.9459 25.9148 50.9719 25.9346 50.9971 25.9554C51.0221 25.9761 51.0465 25.9977 51.0699 26.0203C51.4301 26.3664 51.5152 26.85 51.5213 27.3284C51.5583 30.2723 51.5196 33.2212 51.5231 36.1656L51.5282 38.9152C51.5295 39.4218 51.5735 39.9618 51.5033 40.463C51.4976 40.5014 51.4904 40.5394 51.4817 40.5772C51.4731 40.6149 51.463 40.6522 51.4514 40.6892C51.44 40.7261 51.4271 40.7627 51.4129 40.7987C51.3986 40.8347 51.383 40.8701 51.3661 40.905C51.3489 40.9397 51.3308 40.9739 51.3111 41.0073C51.2915 41.0407 51.2706 41.0733 51.2486 41.105C51.2263 41.1368 51.2029 41.1677 51.1787 41.1978C51.1542 41.2278 51.1286 41.2569 51.102 41.2849C50.7653 41.6395 50.3363 41.7084 49.8717 41.7125C45.8768 41.7475 41.8714 41.7509 37.8768 41.7011C37.1889 41.6818 35.5186 41.7789 34.9589 41.6212C34.7165 41.5529 34.4954 41.4083 34.3171 41.2323C34.1013 41.0197 33.9306 40.7464 33.8564 40.451C33.7015 39.8344 33.7803 39.0756 33.78 38.4371L33.7811 35.4317L33.7842 33.843L33.7869 29.1552C33.7869 28.5178 33.7163 27.4063 33.8373 26.8159C33.8942 26.538 34.0592 26.2627 34.2582 26.063C34.7297 25.5902 35.2726 25.6334 35.8893 25.6398L36.9022 25.6428L36.9029 25.6433Z" fill="#4ABFF6"/>
<path d="M37.6668 34.4582C37.694 34.4559 37.7214 34.4531 37.7488 34.4525C38.0021 34.4445 38.2585 34.5148 38.4441 34.695C38.5938 34.8402 38.6838 35.0353 38.7243 35.2382C38.7926 35.5804 38.7529 35.9586 38.7535 36.3069L38.7614 38.2489L38.0834 38.2519L36.9268 38.2536C36.9276 37.6019 36.8249 35.561 37.023 35.0753C37.1528 34.758 37.3604 34.5872 37.6666 34.4582H37.6668Z" fill="#FEFEFE"/>
<path d="M40.7653 32.639C40.7895 32.6363 40.8139 32.6337 40.8381 32.6322C41.1069 32.6164 41.3476 32.6646 41.5479 32.8567C41.6784 32.9816 41.7698 33.1335 41.8076 33.3098C41.9258 33.8633 41.8604 34.5165 41.861 35.0842L41.8596 38.2348L41.1531 38.2356L40.0375 38.229C40.0374 37.4892 39.9581 33.6907 40.1056 33.291C40.2246 32.9688 40.4631 32.7753 40.7656 32.639H40.7653Z" fill="#FEFEFE"/>
<path d="M43.8579 30.937C44.1416 30.9323 44.3943 30.9905 44.605 31.1967C44.7798 31.3674 44.8361 31.5861 44.8676 31.8202C44.9516 32.4442 44.8892 33.2691 44.8889 33.9137L44.8865 38.2319L44.1437 38.2296L43.0405 38.2275L43.0574 34.2292C43.058 33.4746 43.0085 32.682 43.0697 31.9319C43.0831 31.7677 43.1102 31.6038 43.1867 31.4559C43.33 31.1786 43.5665 31.0233 43.8573 30.9369L43.8579 30.937Z" fill="#FEFEFE"/>
<path d="M46.9825 29.4091L47.0173 29.4085C47.2735 29.4067 47.5019 29.4625 47.6861 29.6503C47.8136 29.7802 47.9314 29.9865 47.9565 30.1682C48.0533 30.8703 47.9873 32.0614 47.9871 32.8032L47.9849 38.2238L47.2316 38.223L46.1734 38.2238L46.1745 32.9651C46.1746 32.1074 46.1153 31.2009 46.1925 30.3477C46.2089 30.1629 46.2405 29.9897 46.3428 29.8305C46.4927 29.5971 46.7174 29.4695 46.9825 29.4093V29.4091Z" fill="#FEFEFE"/>
<path d="M16.2258 18.5009L16.2279 6.67436L16.2237 3.36548C16.2231 2.83843 16.1649 2.23817 16.2485 1.71949C16.317 1.29532 16.5294 0.87572 16.8271 0.566915C17.2364 0.142442 17.6618 0.0232735 18.2386 0.0182511H28.6477C29.1718 0.0184033 31.834 -0.0345607 32.0998 0.0404716C32.1832 0.0640619 32.3457 0.236499 32.4093 0.299965C32.693 0.58183 32.9493 0.906006 33.2155 1.20553C33.675 1.72223 34.1383 2.23558 34.6052 2.74529C35.7607 4.02221 36.9557 5.27508 38.0807 6.57757C38.1807 6.69323 38.3328 6.85578 38.3882 6.99915C38.4553 7.1728 38.3961 9.9385 38.3999 10.3965L38.4001 25.6489C37.9016 25.6365 37.4016 25.6432 36.9031 25.6432L35.8902 25.6402C35.2733 25.6338 34.7306 25.5904 34.2591 26.0634C34.0599 26.2631 33.8951 26.5386 33.8381 26.8163C33.717 27.407 33.7878 28.5185 33.7878 29.1556L33.785 33.8434L33.782 35.4321L20.1698 35.4111L16.2748 35.4222C15.5251 35.4256 14.7363 35.4726 13.9911 35.3916C13.4504 35.3329 12.9096 35.1223 12.45 34.8352C12.3641 34.7816 12.2804 34.725 12.1986 34.6654C12.1167 34.606 12.0371 34.5436 11.9596 34.4786C11.882 34.4136 11.807 34.3459 11.7342 34.2759C11.6615 34.2057 11.591 34.133 11.5234 34.0578C11.4557 33.9828 11.3906 33.9053 11.3283 33.8257C11.2661 33.7461 11.2064 33.6644 11.1499 33.5804C11.0932 33.4967 11.0396 33.411 10.9888 33.3235C10.9381 33.236 10.8906 33.1466 10.846 33.0559C10.3482 32.0601 10.1978 30.8421 9.96205 29.7613C9.69373 28.5351 9.41932 27.3104 9.13882 26.0872C8.70461 23.9326 8.17953 21.7869 7.69555 19.6423L7.12102 17.0626C7.00535 16.5325 6.9049 15.9919 6.76518 15.4676C6.72226 15.3061 6.65454 15.0376 6.53613 14.9189C6.24833 14.6304 5.54016 14.7174 5.16363 14.7215C5.01676 14.9934 4.85909 15.2357 4.58362 15.3949C4.41072 15.4947 4.22048 15.5438 4.02369 15.5661C3.60972 15.6133 1.46102 15.6037 1.09515 15.5055C0.724703 15.4058 0.402658 15.1676 0.214849 14.8311C-0.03186 14.3893 -0.0548415 13.7653 0.0885265 13.2871C0.201912 12.9083 0.45547 12.5872 0.807497 12.4045C0.888313 12.3633 0.972325 12.3298 1.05923 12.3039C1.14613 12.2779 1.23471 12.2599 1.32496 12.2499C1.74045 12.201 4.0071 12.2022 4.30084 12.2997C4.74373 12.4467 5.00794 12.8017 5.20442 13.2029C5.83999 13.208 6.57053 13.107 7.13532 13.4617C7.47137 13.6728 7.73878 13.9995 7.90665 14.357C8.1596 14.8958 8.23098 15.5349 8.35973 16.1135L8.90048 18.5142L16.226 18.5007L16.2258 18.5009Z" fill="#0B1F45"/>
<path d="M32.6215 2.9158C32.6898 2.9502 32.7298 3.00301 32.7805 3.05871C33.0701 3.37391 35.7669 6.31539 35.7941 6.40838C35.8004 6.42862 35.7923 6.45069 35.7914 6.47185C35.2036 6.44673 34.6093 6.45724 34.0208 6.46393C33.7188 6.46743 33.3939 6.4965 33.0954 6.45571C32.9733 6.43897 32.8507 6.40153 32.7587 6.31539C32.6717 6.23396 32.6283 6.11556 32.6125 5.99928C32.5682 5.67678 32.6101 5.29994 32.6133 4.97181C32.6215 4.28647 32.6239 3.60129 32.6212 2.91565L32.6215 2.9158Z" fill="#00AFEF"/>
<path d="M13.2254 30.9781L16.1027 30.9802V33.8545L14.5772 33.8568C14.006 33.8396 13.5286 33.7127 13.0577 33.3795C12.2171 32.7857 11.8913 31.9623 11.724 30.9838L13.2254 30.9782V30.9781ZM38.3998 10.3968C38.6764 10.1503 38.9501 9.89184 39.2473 9.67009C39.3186 9.61667 39.3905 9.56462 39.4637 9.5144C39.5373 9.46432 39.6114 9.41532 39.687 9.36859C39.7625 9.32156 39.8391 9.27621 39.9167 9.23268C39.9943 9.189 40.0724 9.147 40.1521 9.10712C40.2313 9.06709 40.3116 9.02874 40.3926 8.99221C40.4734 8.95569 40.5553 8.92099 40.6381 8.88811C40.7209 8.85524 40.804 8.82419 40.8878 8.79482C40.9719 8.76559 41.0566 8.7385 41.1419 8.71293C41.2271 8.68782 41.3129 8.66408 41.3989 8.64232C41.4852 8.6207 41.572 8.60107 41.659 8.58326C41.7461 8.56546 41.8337 8.54963 41.9216 8.53578C42.0094 8.52193 42.0975 8.51021 42.1858 8.50017C42.2742 8.49027 42.3628 8.48236 42.4512 8.47642C42.5399 8.47049 42.6288 8.46638 42.7177 8.4644C42.8069 8.46227 42.8955 8.46227 42.9845 8.46425C43.0732 8.46638 43.1621 8.47003 43.2508 8.47597C43.302 8.47901 43.3531 8.48251 43.4042 8.48692C43.4554 8.49119 43.5064 8.49636 43.5575 8.50184C43.6085 8.50747 43.6595 8.51386 43.7102 8.52056C43.7611 8.52741 43.8118 8.53487 43.8627 8.54308C43.9133 8.55115 43.964 8.55998 44.0145 8.56941C44.0649 8.57885 44.1151 8.58874 44.1655 8.59955C44.2156 8.6102 44.2658 8.62147 44.3157 8.63334C44.3655 8.64536 44.4154 8.65784 44.4649 8.67108C44.5147 8.68432 44.564 8.69817 44.6133 8.71248C44.6626 8.72678 44.7118 8.7417 44.7606 8.75738C44.8095 8.77305 44.8582 8.78934 44.9067 8.80623C44.955 8.82297 45.0032 8.84047 45.0513 8.85859C45.0994 8.8767 45.1472 8.89526 45.1947 8.91475C45.2423 8.93407 45.2895 8.95401 45.3367 8.9741C45.3838 8.9945 45.4306 9.0155 45.4771 9.03726C45.5237 9.05887 45.57 9.08094 45.6159 9.10362C45.6619 9.12645 45.7076 9.14989 45.7531 9.17348C45.7984 9.19768 45.8436 9.22203 45.8884 9.24714C45.9331 9.27225 45.9777 9.29782 46.0218 9.32415C46.0658 9.35018 46.1097 9.37696 46.1532 9.40421C46.1967 9.4316 46.2398 9.45945 46.2826 9.48776C46.3253 9.51607 46.3678 9.54483 46.4101 9.57436C46.452 9.60358 46.4937 9.63372 46.535 9.66416C46.5763 9.69475 46.6171 9.72549 46.6577 9.757C46.6982 9.7885 46.7384 9.82046 46.7783 9.85318C46.8178 9.8856 46.8571 9.91863 46.8961 9.95226C46.935 9.98574 46.9734 10.0197 47.0116 10.0542C47.0495 10.0886 47.0872 10.1235 47.1244 10.1591C47.1615 10.1944 47.1985 10.2303 47.2347 10.2665C47.2708 10.3029 47.3067 10.3396 47.3421 10.3769C47.3774 10.414 47.412 10.4516 47.4467 10.4897C47.4811 10.5276 47.515 10.5662 47.5487 10.605C48.8728 12.1163 49.5625 14.2623 49.4249 16.2603C49.3872 16.8106 49.3216 17.4302 49.1498 17.9539C48.9285 18.6306 48.4227 19.5226 48.106 20.1997L45.5406 25.6351C44.7609 25.6944 43.94 25.6416 43.1563 25.6425L38.4004 25.6488L38.4002 10.3965L38.3998 10.3968ZM49.7485 5.14958C49.7995 5.14548 49.8505 5.14365 49.9013 5.14395C49.9524 5.14441 50.0033 5.147 50.054 5.15217C50.1049 5.15719 50.1553 5.1642 50.2055 5.17378C50.2556 5.18307 50.3054 5.19463 50.3545 5.20848C50.4037 5.22233 50.4521 5.23847 50.5 5.25627C50.5477 5.27423 50.5946 5.29417 50.6407 5.31654C50.6865 5.33876 50.7314 5.36281 50.7754 5.38914C50.819 5.41532 50.8617 5.44332 50.9031 5.47315C51.3701 5.80768 51.6543 6.34371 51.7388 6.90546C51.7444 6.94047 51.7488 6.97578 51.7528 7.01109C51.7564 7.0464 51.7593 7.0817 51.7614 7.11717C51.7636 7.15263 51.7645 7.18809 51.7648 7.22355C51.7649 7.25916 51.7643 7.29447 51.7627 7.32994C51.761 7.3654 51.7585 7.40086 51.7552 7.43617C51.7519 7.47148 51.7477 7.50679 51.7426 7.54194C51.7374 7.57695 51.7315 7.61211 51.7246 7.64696C51.7181 7.68181 51.71 7.71651 51.7015 7.75091C51.6928 7.7853 51.6834 7.81955 51.673 7.85364C51.6627 7.88773 51.6516 7.92137 51.6395 7.9547C51.6275 7.98818 51.6147 8.02105 51.601 8.05408C51.5875 8.08696 51.573 8.11922 51.5577 8.15118C51.5421 8.18329 51.5261 8.21495 51.5091 8.246C51.4922 8.27735 51.4747 8.3081 51.4561 8.33869C51.4376 8.36928 51.4185 8.39865 51.3986 8.42848C51.3787 8.4577 51.358 8.48662 51.3367 8.51508C51.0091 8.9531 50.5819 9.17926 50.048 9.26084C49.9992 9.26373 49.9503 9.26449 49.9012 9.26358C49.852 9.26236 49.8034 9.25932 49.7547 9.25384C49.706 9.24866 49.6576 9.24151 49.6096 9.23192C49.5615 9.22264 49.5137 9.21122 49.4666 9.19783C49.4195 9.18459 49.373 9.16937 49.3269 9.15217C49.281 9.13497 49.2358 9.1158 49.1913 9.0951C49.147 9.07425 49.1037 9.05142 49.0612 9.02676C49.0189 9.00195 48.9775 8.97608 48.9371 8.94792C48.9087 8.9286 48.8807 8.90835 48.8531 8.88735C48.8257 8.8665 48.799 8.84489 48.7725 8.82252C48.7461 8.80029 48.7203 8.77731 48.6949 8.75387C48.6697 8.73028 48.6451 8.70624 48.6212 8.68143C48.597 8.65662 48.574 8.63136 48.5513 8.60533C48.5287 8.57931 48.5064 8.55267 48.4851 8.52573C48.4637 8.49864 48.443 8.4711 48.4232 8.44294C48.4032 8.41494 48.3839 8.38617 48.3654 8.3571C48.3468 8.32788 48.329 8.29835 48.3119 8.26837C48.2947 8.23839 48.2784 8.2081 48.2631 8.17721C48.2476 8.14631 48.2329 8.11526 48.2189 8.08361C48.2051 8.0521 48.1918 8.02014 48.1795 7.98803C48.1673 7.95591 48.1558 7.92319 48.1451 7.89047C48.1345 7.8576 48.1244 7.82472 48.1156 7.79139C48.1065 7.75791 48.0984 7.72458 48.0911 7.69079C48.0836 7.657 48.0772 7.62306 48.0718 7.58912C47.9727 7.0117 48.0946 6.43229 48.4361 5.95455C48.7629 5.49659 49.1982 5.24197 49.7477 5.14898L49.7485 5.14958ZM9.13807 26.0877C9.41857 27.3111 9.69297 28.5358 9.96129 29.7619C10.1973 30.8426 10.3474 32.0605 10.8452 33.0564C10.8895 33.1471 10.9373 33.2365 10.9882 33.324C11.0388 33.4115 11.0923 33.4973 11.149 33.5809C11.2058 33.6649 11.2653 33.7465 11.3277 33.8262C11.39 33.9058 11.4552 33.9831 11.5228 34.0583C11.5905 34.1334 11.6606 34.206 11.7336 34.2764C11.8064 34.3467 11.8812 34.4142 11.959 34.4792C12.0366 34.5441 12.1159 34.6064 12.198 34.6659C12.2797 34.7253 12.3635 34.782 12.4492 34.8357C12.9093 35.1226 13.4498 35.3336 13.9908 35.3922C14.7357 35.473 15.5246 35.426 16.2742 35.4228L20.1692 35.4117L33.7812 35.4327L33.7805 38.4381C33.7806 39.0764 33.7019 39.8351 33.8569 40.4516C33.931 40.7472 34.1018 41.0204 34.3176 41.233C34.4959 41.4089 34.7169 41.5535 34.9594 41.6218C35.5193 41.7797 37.1892 41.6823 37.8773 41.7017C37.2909 42.2614 36.7009 42.7756 35.9868 43.1683C35.8911 43.2219 35.7942 43.2732 35.696 43.3217C35.5975 43.3704 35.498 43.4165 35.3972 43.4599C35.2966 43.5033 35.1947 43.5442 35.0918 43.5823C34.9889 43.6202 34.8851 43.6558 34.7806 43.6885C34.6757 43.7214 34.5704 43.7514 34.4641 43.7784C34.3577 43.8057 34.2508 43.83 34.1436 43.852C34.0359 43.8736 33.9281 43.8924 33.8196 43.9084C33.7111 43.9242 33.6021 43.9375 33.493 43.9477C32.5276 44.0433 31.5146 43.9783 30.5424 43.9778L24.9416 43.9748L16.8652 43.9708C15.3906 43.9722 13.7802 44.0335 12.3188 43.9579C11.7082 43.9264 11.0839 43.8387 10.4967 43.6675C8.24727 43.0112 6.40358 41.4375 5.27931 39.3961C5.23913 39.3234 5.20017 39.25 5.16166 39.1764C5.12331 39.1027 5.08602 39.0283 5.04949 38.9535C5.01312 38.8788 4.97751 38.8038 4.94311 38.7283C4.90841 38.6527 4.87477 38.5767 4.84205 38.5002C4.80918 38.4238 4.77767 38.3469 4.74693 38.2697C4.71603 38.1926 4.68636 38.1149 4.65744 38.037C4.62852 37.9591 4.60067 37.8809 4.57373 37.802C4.54664 37.7235 4.52092 37.6444 4.49596 37.5651C4.471 37.4859 4.4468 37.4062 4.42397 37.3264C4.40114 37.2465 4.37907 37.1663 4.35822 37.086C4.33722 37.0054 4.31743 36.9248 4.29826 36.844C4.27923 36.7628 4.26127 36.6819 4.24438 36.6003C4.22749 36.5189 4.21151 36.4376 4.19659 36.3556C4.18168 36.2738 4.16798 36.192 4.15489 36.1096C4.14195 36.0276 4.13008 35.9449 4.11943 35.8629C4.10877 35.7804 4.09873 35.6979 4.0899 35.6153C4.08123 35.5325 4.07347 35.4497 4.06677 35.3669C4.06022 35.2841 4.05444 35.2013 4.04957 35.1181C4.04485 35.0351 4.04135 34.9522 4.03892 34.8691C4.03618 34.7857 4.03481 34.7029 4.03435 34.6196C4.03389 34.5365 4.03435 34.4534 4.03572 34.3705C4.03709 34.2871 4.03998 34.2043 4.04363 34.1213C4.04729 34.0382 4.05216 33.9553 4.05764 33.8724C4.06342 33.7894 4.06996 33.7068 4.07788 33.6238C4.08579 33.541 4.09432 33.4584 4.10421 33.3759C4.1141 33.2931 4.12491 33.2109 4.13708 33.1287C4.1488 33.0464 4.16189 32.964 4.17559 32.8825C4.18959 32.8004 4.20451 32.7184 4.22049 32.6371C4.23631 32.5557 4.25336 32.4741 4.27117 32.3932C4.28913 32.312 4.30815 32.2311 4.32824 32.1504C4.34818 32.0697 4.36903 31.9892 4.3911 31.909C4.41317 31.8288 4.43599 31.7492 4.46004 31.6695C5.21554 29.0969 6.81587 27.3531 9.13868 26.0885L9.13807 26.0877Z" fill="url(#paint0_linear_121_123)"/>
<path d="M9.97279 20.0974C10.7727 20.0747 11.5788 20.0932 12.3793 20.0924L17.0029 20.0872L31.1045 20.0889L28.8138 27.6742C28.6322 28.2428 28.4857 28.8216 28.2897 29.3862L11.3786 29.3897C11.106 28.3359 10.8767 27.2684 10.6345 26.2071C10.1681 24.1799 9.7133 22.1501 9.26904 20.118L9.97234 20.0977L9.97279 20.0974Z" fill="#FEFEFE"/>
<path d="M14.3436 25.7541C14.8835 25.7235 15.4392 25.7462 15.9804 25.7462L19.0857 25.7461L23.7433 25.7491C24.2959 25.7492 24.8514 25.7191 25.4034 25.7313C25.5527 25.7343 25.7025 25.7456 25.8424 25.8033C26.0305 25.8809 26.1713 26.0284 26.2426 26.2185C26.253 26.2468 26.262 26.2755 26.2694 26.3051C26.2769 26.3343 26.2828 26.3641 26.2872 26.3938C26.2915 26.4238 26.2944 26.4538 26.2958 26.4842C26.2971 26.5143 26.2968 26.5446 26.295 26.5748C26.2932 26.6049 26.2898 26.635 26.285 26.6649C26.2799 26.6948 26.2735 26.7242 26.2656 26.7533C26.2577 26.7825 26.2481 26.8113 26.2373 26.8396C26.2264 26.8676 26.2137 26.8953 26.2002 26.9224C26.0736 27.17 25.8892 27.2852 25.6343 27.3662C25.1698 27.3928 24.6811 27.3564 24.2136 27.3552L21.023 27.3506L16.0646 27.3488C15.5441 27.3467 15.017 27.3765 14.4982 27.3615C14.3559 27.3573 14.2166 27.3379 14.0859 27.2784C13.904 27.1953 13.7692 27.0484 13.7046 26.8588C13.6958 26.8324 13.6884 26.8055 13.6821 26.7782C13.6759 26.751 13.671 26.7233 13.6675 26.6958C13.664 26.6681 13.6617 26.6402 13.661 26.6124C13.6602 26.5845 13.6608 26.5566 13.6628 26.5288C13.6646 26.5009 13.668 26.4732 13.6727 26.4458C13.6772 26.4181 13.6833 26.3909 13.6906 26.3641C13.6978 26.337 13.7065 26.3107 13.7164 26.2847C13.7263 26.2586 13.7377 26.2331 13.75 26.2081C13.8804 25.95 14.0768 25.8322 14.3436 25.7541Z" fill="#0B1F45"/>
<path d="M13.3838 22.1079C14.4007 22.0805 15.4263 22.1132 16.4439 22.1149L22.2862 22.1125C22.8533 22.112 26.5968 22.0347 26.8534 22.1196C27.0606 22.188 27.221 22.3537 27.309 22.551C27.3204 22.5758 27.3303 22.6013 27.3386 22.6274C27.3473 22.6534 27.3545 22.6797 27.3606 22.7064C27.3663 22.733 27.3709 22.7599 27.3739 22.7872C27.377 22.8143 27.379 22.8413 27.3791 22.8689C27.3793 22.8961 27.3784 22.9234 27.3761 22.9506C27.3736 22.9779 27.3697 23.0048 27.3645 23.0317C27.3592 23.0585 27.3525 23.085 27.3446 23.1112C27.3367 23.1374 27.3274 23.1629 27.3167 23.1882C27.2033 23.4545 27.0091 23.5886 26.7515 23.6933L18.0791 23.6929L14.9988 23.6935C14.4824 23.6943 13.955 23.7215 13.4399 23.6936C13.2944 23.6857 13.151 23.665 13.0244 23.5879C12.8463 23.4792 12.7591 23.2946 12.7099 23.0987C12.6548 22.8777 12.6828 22.6656 12.8105 22.4741C12.9562 22.2559 13.1298 22.1537 13.3838 22.1079Z" fill="#0B1F45"/>
<path d="M19.5341 1.62288C23.3974 1.55941 27.2689 1.63079 31.1333 1.61405L31.138 4.5607C31.1388 5.20799 31.0644 5.95299 31.2189 6.58186C31.2304 6.62904 31.2438 6.67607 31.2587 6.72249C31.2736 6.76891 31.2899 6.81487 31.3079 6.86022C31.3257 6.90558 31.345 6.95032 31.3657 6.99431C31.3866 7.03844 31.4088 7.08182 31.4325 7.12443C31.4563 7.1669 31.4814 7.20875 31.5079 7.24969C31.5342 7.29048 31.5621 7.33051 31.5913 7.36962C31.6203 7.40889 31.6506 7.44678 31.6824 7.48377C31.7139 7.5209 31.7468 7.55697 31.7809 7.59167C31.9928 7.80505 32.2547 7.96334 32.5481 8.03395C33.0257 8.14886 33.6067 8.09011 34.0972 8.09011C35.0341 8.09011 35.9734 8.07566 36.9102 8.09011L36.904 20.7753C36.9041 22.3969 36.9301 24.0225 36.9038 25.6433L35.8909 25.6402C35.2741 25.6338 34.7314 25.5904 34.2599 26.0635C34.0606 26.2632 33.8958 26.5386 33.8389 26.8164C33.7178 27.4067 33.7884 28.5185 33.7884 29.1556L33.7856 33.8434C32.0016 33.8618 30.2154 33.8446 28.4308 33.8445L17.5829 33.8469L17.5815 30.9639L29.3928 30.9637C29.8352 29.6402 30.1812 28.2749 30.572 26.9345L32.1829 21.5749C32.4854 20.5513 32.7265 19.4856 33.0878 18.4822C27.9468 18.523 22.8058 18.5268 17.6646 18.4936L17.6578 10.2528C17.6578 8.7791 17.6339 7.30189 17.6663 5.82895C17.6141 5.24741 17.6582 4.62447 17.6578 4.03913C17.6573 3.3713 17.6176 2.67455 17.6648 2.00961C17.6704 1.93001 17.6774 1.85224 17.7299 1.78862C17.7362 1.78101 17.7435 1.77401 17.7502 1.76655C17.7675 1.74661 17.7744 1.73626 17.7939 1.7183C17.9871 1.54084 19.2211 1.61436 19.5347 1.62273L19.5341 1.62288Z" fill="url(#paint1_linear_121_123)"/>
<path d="M21.0593 8.34517C21.6915 8.29921 22.3479 8.33163 22.9835 8.33163L26.6334 8.33376L29.4816 8.333C30.0421 8.333 30.705 8.26405 31.2474 8.38946C31.4052 8.42583 31.5353 8.55185 31.6155 8.68913C31.6276 8.70983 31.6384 8.73053 31.6484 8.75245C31.6583 8.77436 31.667 8.79613 31.6744 8.8188C31.682 8.84133 31.6883 8.86446 31.6935 8.88744C31.6986 8.91073 31.7026 8.93402 31.705 8.95806C31.7078 8.9818 31.7091 9.00555 31.7093 9.02929C31.7094 9.05318 31.7085 9.07693 31.7059 9.10067C31.7035 9.12441 31.7 9.14785 31.6953 9.17129C31.6903 9.19457 31.6843 9.21756 31.6772 9.24038C31.5986 9.49242 31.4341 9.62803 31.2057 9.74232C30.5336 9.79651 29.8376 9.76089 29.1621 9.76302L24.8288 9.75678L22.3091 9.75846C21.9487 9.75861 21.4544 9.81903 21.1072 9.73213C20.9517 9.69317 20.7928 9.56395 20.7107 9.42865C20.6072 9.25743 20.5896 9.04131 20.6416 8.85016C20.7097 8.60132 20.8477 8.47271 21.0591 8.34502L21.0593 8.34517Z" fill="#FEFEFE"/>
<path d="M21.121 15.577C21.6479 15.5325 22.2028 15.5664 22.7326 15.5672L25.8424 15.5742L30.2361 15.5793C31.1336 15.577 32.0375 15.5516 32.9344 15.5772C33.0933 15.5818 33.286 15.5655 33.421 15.6548C33.6086 15.7789 33.7343 15.9551 33.7715 16.1794C33.803 16.3692 33.7636 16.5809 33.6462 16.7359C33.5307 16.8878 33.3916 16.9725 33.2044 17.0013L24.3713 16.9922C23.7556 16.9903 23.1399 16.9922 22.5244 16.9972C22.0823 17.0014 21.5584 17.0646 21.1298 16.9692C20.961 16.9316 20.8234 16.8448 20.7364 16.6923C20.6274 16.5018 20.6256 16.2523 20.693 16.0479C20.7716 15.8099 20.9021 15.6881 21.1208 15.577H21.121Z" fill="#FEFEFE"/>
<path d="M21.1778 11.9316C21.9527 11.9078 22.7353 11.9422 23.5112 11.9413L29.255 11.9436L31.9311 11.9477C32.3234 11.9485 32.9625 11.8849 33.3221 11.9877C33.4806 12.033 33.6174 12.181 33.6881 12.3252C33.7827 12.5177 33.7988 12.7464 33.7213 12.9478C33.6399 13.1595 33.4746 13.2764 33.2728 13.3627C32.7833 13.4213 32.2613 13.379 31.7668 13.3755L29.1938 13.3692L23.3299 13.3831C22.7149 13.3817 22.0936 13.4047 21.48 13.3899C21.3337 13.3864 21.1833 13.372 21.0474 13.3149C20.8868 13.2475 20.7678 13.123 20.7062 12.9601C20.6263 12.749 20.6493 12.5058 20.745 12.3043C20.8406 12.1036 20.9715 12.0018 21.1781 11.9317L21.1778 11.9316Z" fill="#FEFEFE"/>
<path d="M64.6488 22.6545C67.1567 22.6545 69.299 21.4352 69.299 19.0843C69.299 14.7476 61.3049 15.6882 61.3049 12.7621C61.3049 11.6127 62.3672 11.0552 63.6562 11.0552C65.5198 11.0552 67.0871 12.0305 67.6968 13.6851L69.0725 12.5706C67.8883 10.6374 65.9027 9.71436 63.7082 9.71436C61.3918 9.71436 59.4761 10.8986 59.4761 12.919C59.4761 17.1861 67.4878 16.2457 67.4878 19.2412C67.4878 20.5475 66.2166 21.3138 64.7186 21.3138C62.9596 21.3138 61.0611 20.4428 60.2251 18.2831L58.7969 19.3803C60.1204 21.4704 62.0711 22.6548 64.6486 22.6548L64.6488 22.6545ZM73.7228 22.6545C74.1234 22.6545 74.6981 22.5848 75.2032 22.3933L75.3948 20.9824C74.8724 21.2263 74.5238 21.3135 73.984 21.3135C73.3396 21.3135 73.0087 21.0173 73.0087 20.3554V14.1725H75.3773V12.936H73.0087V12.849C73.0087 12.2568 73.0262 11.3514 73.0784 10.5326C72.5733 10.8983 72.0682 11.1596 71.4238 11.3165V12.936H69.6473V14.1725H71.4238V20.5469C71.4238 21.9926 72.2948 22.6543 73.7228 22.6543V22.6545ZM84.695 22.6545C85.0783 22.6545 85.3743 22.5499 85.7053 22.4106L85.9318 21.2436C85.6358 21.4004 85.479 21.4352 85.2003 21.4352C84.8693 21.4352 84.7127 21.2436 84.7127 20.8602V15.8792C84.7127 14.0155 83.6327 12.6918 81.1947 12.6918C79.3311 12.6918 77.5198 13.4757 76.2484 15.1823L77.4326 16.1752C78.2688 14.6599 79.6444 13.9285 81.0898 13.9285C82.5004 13.9285 83.1101 14.7819 83.1101 15.9489V16.2623C79.1043 16.6106 76.161 17.6556 76.161 20.1288C76.161 21.6092 77.3452 22.6542 79.2089 22.6542C81.0028 22.6542 82.4308 21.6267 83.1099 20.181V20.9473C83.1099 22.0273 83.7198 22.6542 84.6949 22.6542L84.695 22.6545ZM77.8332 20.0072C77.8332 18.4222 79.9405 17.743 83.1102 17.4643V18.0393C83.1102 20.0944 81.2818 21.418 79.5574 21.418C78.5471 21.418 77.8332 20.8607 77.8332 20.0075V20.0072ZM87.1859 22.4106H88.7705V18.0391C88.7705 15.5138 90.8256 13.9985 92.3932 13.9985C93.9257 13.9985 94.5354 14.7822 94.5354 16.1233V22.4106H96.2074C96.1377 21.6443 96.1203 20.8954 96.1203 20.1464V15.8795C96.1203 14.0334 95.0752 12.6921 92.8984 12.6921C91.1742 12.6921 89.4674 13.8763 88.7707 15.6877V12.9359H87.186V22.4105L87.1859 22.4106ZM102.112 22.6545C103.662 22.6545 104.951 21.7662 105.612 20.4078V22.4106H107.284C107.215 21.6443 107.197 20.8954 107.197 20.1464V9.95787H105.612V14.9216C104.951 13.5804 103.644 12.6922 102.112 12.6922C99.4295 12.6922 97.6008 14.7126 97.6008 17.6734C97.6008 20.6342 99.4295 22.6545 102.112 22.6545ZM99.3076 17.6734C99.3076 15.4789 100.596 13.9636 102.46 13.9636C104.202 13.9636 105.612 15.4267 105.612 17.2381V18.1091C105.612 19.8856 104.237 21.3833 102.46 21.3833C100.597 21.3833 99.3076 19.8681 99.3076 17.6736V17.6734ZM117.368 22.6545C117.752 22.6545 118.048 22.5499 118.379 22.4106L118.605 21.2436C118.309 21.4004 118.152 21.4352 117.874 21.4352C117.543 21.4352 117.386 21.2436 117.386 20.8602V15.8792C117.386 14.0155 116.306 12.6918 113.868 12.6918C112.004 12.6918 110.193 13.4757 108.922 15.1823L110.106 16.1752C110.942 14.6599 112.318 13.9285 113.763 13.9285C115.174 13.9285 115.783 14.7819 115.783 15.9489V16.2623C111.778 16.6106 108.834 17.6556 108.834 20.1288C108.834 21.6092 110.019 22.6542 111.882 22.6542C113.676 22.6542 115.104 21.6267 115.783 20.181V20.9473C115.783 22.0273 116.393 22.6542 117.368 22.6542L117.368 22.6545ZM110.506 20.0072C110.506 18.4222 112.614 17.743 115.784 17.4643V18.0393C115.784 20.0944 113.955 21.418 112.231 21.418C111.22 21.418 110.506 20.8607 110.506 20.0075V20.0072ZM119.859 22.4106H121.549C121.479 21.6443 121.461 20.8954 121.461 20.1464V17.6908C121.461 15.7924 122.698 14.19 124.004 14.19C124.562 14.19 124.892 14.3467 125.293 14.7298L125.99 13.2667C125.537 12.8835 125.102 12.6918 124.44 12.6918C123.273 12.6918 122.106 13.7192 121.461 15.3739V12.9356H119.859V22.4102V22.4106ZM130.222 22.6545C130.622 22.6545 131.197 22.5848 131.702 22.3933L131.894 20.9824C131.371 21.2263 131.023 21.3135 130.483 21.3135C129.839 21.3135 129.508 21.0173 129.508 20.3554V14.1725H131.876V12.936H129.508V12.849C129.508 12.2568 129.525 11.3514 129.577 10.5326C129.072 10.8983 128.567 11.1596 127.923 11.3165V12.936H126.146V14.1725H127.923V20.5469C127.923 21.9926 128.794 22.6543 130.222 22.6543V22.6545ZM133.2 22.4106H134.872C134.802 21.6443 134.785 20.8954 134.785 20.1464V9.95787H133.2V22.4106ZM144.956 22.6545C145.34 22.6545 145.636 22.5499 145.967 22.4106L146.193 21.2436C145.897 21.4004 145.74 21.4352 145.462 21.4352C145.131 21.4352 144.974 21.2436 144.974 20.8602V15.8792C144.974 14.0155 143.894 12.6918 141.456 12.6918C139.592 12.6918 137.781 13.4757 136.51 15.1823L137.694 16.1752C138.53 14.6599 139.906 13.9285 141.351 13.9285C142.762 13.9285 143.371 14.7819 143.371 15.9489V16.2623C139.366 16.6106 136.422 17.6556 136.422 20.1288C136.422 21.6092 137.607 22.6542 139.47 22.6542C141.264 22.6542 142.692 21.6267 143.371 20.181V20.9473C143.371 22.0273 143.981 22.6542 144.956 22.6542L144.956 22.6545ZM138.094 20.0072C138.094 18.4222 140.202 17.743 143.371 17.4643V18.0393C143.371 20.0944 141.543 21.418 139.819 21.418C138.808 21.418 138.094 20.8607 138.094 20.0075V20.0072ZM147.447 22.4106H149.136C149.067 21.6443 149.049 20.8954 149.049 20.1464V17.6908C149.049 15.7924 150.286 14.19 151.592 14.19C152.149 14.19 152.48 14.3467 152.881 14.7298L153.578 13.2667C153.125 12.8835 152.689 12.6918 152.027 12.6918C150.86 12.6918 149.694 13.7192 149.049 15.3739V12.9356H147.447V22.4102V22.4106Z" fill="white"/>
<path d="M61.9385 34.5782C63.7562 34.5782 64.8036 33.2431 64.8036 31.6307C64.8036 30.0491 63.7355 28.7037 61.9385 28.7037C60.1107 28.7037 59.0835 30.0286 59.0835 31.6307C59.0835 33.2327 60.1107 34.5782 61.9385 34.5782ZM60.09 31.6409C60.09 30.4086 60.7677 29.4329 61.9385 29.4329C63.1196 29.4329 63.7971 30.4086 63.7971 31.6307C63.7971 32.8631 63.1092 33.849 61.9385 33.849C60.7677 33.849 60.09 32.8836 60.09 31.6409ZM65.7075 34.4343H66.6934C66.6523 33.9826 66.642 33.5409 66.642 33.0993V27.0914H65.7073V34.4342L65.7075 34.4343ZM72.6395 34.5782C72.8654 34.5782 73.04 34.5165 73.2351 34.4343L73.3685 33.7464C73.194 33.8388 73.1016 33.8592 72.9372 33.8592C72.7421 33.8592 72.6497 33.7464 72.6497 33.5202V30.583C72.6497 29.4842 72.0129 28.7036 70.5752 28.7036C69.4763 28.7036 68.4084 29.1659 67.6586 30.1724L68.3569 30.7576C68.8499 29.8642 69.6612 29.4327 70.5137 29.4327C71.3454 29.4327 71.7051 29.936 71.7051 30.6241V30.8089C69.343 31.0143 67.6073 31.6306 67.6073 33.0888C67.6073 33.9618 68.3058 34.578 69.4045 34.578C70.4624 34.578 71.3043 33.972 71.7048 33.1198V33.5715C71.7048 34.2082 72.0644 34.578 72.6394 34.578L72.6395 34.5782ZM68.5933 33.0171C68.5933 32.0826 69.8359 31.682 71.7052 31.5175V31.8564C71.7052 33.0682 70.6269 33.8488 69.6104 33.8488C69.0147 33.8488 68.5936 33.5199 68.5936 33.0169L68.5933 33.0171ZM74.3753 36.5807C75.3201 36.5807 75.7926 36.1184 76.2239 35.1226L78.8838 28.8477H77.9492C77.8773 29.2277 77.795 29.4434 77.6309 29.8233L76.6245 32.2263C76.3676 32.8322 76.1315 33.3662 76.1315 33.3662C76.1315 33.3662 75.9673 32.822 75.7207 32.2056L74.3446 28.8474H73.3279L75.6489 34.4444L75.4334 34.9681C75.1765 35.574 74.9199 35.8409 74.3653 35.8409C74.0367 35.8409 73.7801 35.7383 73.5128 35.5534L73.3174 36.3441C73.6771 36.4983 74.0364 36.5803 74.3753 36.5803V36.5807ZM79.5102 34.4343H80.4449V31.8566C80.4449 30.3677 81.6567 29.474 82.5809 29.474C83.4847 29.474 83.8443 29.9363 83.8443 30.7267V34.4342H84.8302C84.7891 33.9825 84.7788 33.5408 84.7788 33.0991V30.583C84.7788 29.4944 84.1625 28.7036 82.8789 28.7036C81.8623 28.7036 80.8558 29.402 80.4449 30.4699V28.8475H79.5102V34.4343ZM90.5298 34.5782C91.4439 34.5782 92.2038 34.0544 92.5939 33.2533V34.4343H93.5798C93.5387 33.9826 93.5283 33.5409 93.5283 33.0993V27.0914H92.5937V30.0182C92.2035 29.2276 91.4331 28.7037 90.5296 28.7037C88.9482 28.7037 87.8697 29.8951 87.8697 31.6409C87.8697 33.3868 88.9482 34.5782 90.5296 34.5782H90.5298ZM88.8763 31.6409C88.8763 30.3468 89.6363 29.4534 90.7353 29.4534C91.7624 29.4534 92.5939 30.3161 92.5939 31.384V31.8975C92.5939 32.9451 91.7827 33.8281 90.7353 33.8281C89.6364 33.8281 88.8763 32.9347 88.8763 31.6406V31.6409ZM97.2978 34.5782C99.1154 34.5782 100.163 33.2431 100.163 31.6307C100.163 30.0491 99.0947 28.7037 97.2978 28.7037C95.4699 28.7037 94.4427 30.0286 94.4427 31.6307C94.4427 33.2327 95.4699 34.5782 97.2978 34.5782ZM95.4492 31.6409C95.4492 30.4086 96.1269 29.4329 97.2978 29.4329C98.4788 29.4329 99.1564 30.4086 99.1564 31.6307C99.1564 32.8631 98.4685 33.849 97.2978 33.849C96.1269 33.849 95.4492 32.8836 95.4492 31.6409ZM101.221 26.958C101.087 27.4817 100.882 28.0159 100.605 28.5497V29.5664H101.621V28.5497H101.005L101.816 27.4508L101.221 26.9579L101.221 26.958ZM102.761 34.4343H103.696V32.5958L104.764 31.6819L106.931 34.4342H108.061L105.452 31.0451L107.804 28.8475H106.674C106.469 29.135 106.243 29.3816 105.945 29.6382L103.696 31.6613V27.0912H102.761V34.434V34.4343ZM110.721 34.5782C112.538 34.5782 113.586 33.2431 113.586 31.6307C113.586 30.0491 112.518 28.7037 110.721 28.7037C108.893 28.7037 107.866 30.0286 107.866 31.6307C107.866 33.2327 108.893 34.5782 110.721 34.5782ZM108.872 31.6409C108.872 30.4086 109.55 29.4329 110.721 29.4329C111.902 29.4329 112.579 30.4086 112.579 31.6307C112.579 32.8631 111.891 33.849 110.721 33.849C109.55 33.849 108.872 32.8836 108.872 31.6409ZM114.489 34.4343H115.424V31.8566C115.424 30.3677 116.636 29.474 117.56 29.474C118.464 29.474 118.824 29.9363 118.824 30.7267V34.4342H119.809C119.768 33.9825 119.758 33.5408 119.758 33.0991V30.583C119.758 29.4944 119.142 28.7036 117.858 28.7036C116.841 28.7036 115.835 29.402 115.424 30.4699V28.8475H114.489V34.4343ZM120.97 34.4343H121.956C121.915 33.9826 121.904 33.5409 121.904 33.0993V28.8474H120.97V34.4342L120.97 34.4343ZM120.908 28.0054H121.966V27.0093H120.908V28.0054Z" fill="white"/>
<path d="M15.3701 36.2167C15.9521 36.1561 16.5108 36.2882 16.9995 36.6107C17.6165 37.018 18.0414 37.6867 18.186 38.4086C18.1958 38.4571 18.2044 38.5057 18.2121 38.5547C18.2195 38.6036 18.2256 38.6524 18.2308 38.7017C18.2358 38.751 18.2396 38.8004 18.2422 38.8497C18.2449 38.8991 18.2461 38.9484 18.2464 38.9981C18.2466 39.0475 18.2457 39.0971 18.2434 39.1464C18.2411 39.1958 18.2376 39.2451 18.2329 39.2944C18.2282 39.3435 18.2224 39.3928 18.2151 39.4414C18.2079 39.4906 18.1996 39.5391 18.1901 39.5877C18.1807 39.6362 18.1699 39.6845 18.158 39.7325C18.146 39.7806 18.1331 39.8283 18.1188 39.8758C18.1044 39.9229 18.0891 39.97 18.0725 40.0167C18.0561 40.0633 18.0382 40.1094 18.0195 40.155C18.0008 40.2007 17.9807 40.2457 17.9597 40.2906C17.9384 40.3354 17.9163 40.3795 17.8931 40.4234C17.8699 40.467 17.8456 40.5103 17.8203 40.5524C17.7949 40.5949 17.7686 40.6367 17.7412 40.6778C17.3167 41.3139 16.7306 41.6566 15.9897 41.8029C15.3932 41.8613 14.8329 41.7593 14.3282 41.4248C13.7197 41.0213 13.3143 40.3371 13.1742 39.6272C13.0175 38.8317 13.1622 38.0083 13.6186 37.3336C14.0401 36.7107 14.6409 36.3575 15.3704 36.2171L15.3701 36.2167Z" fill="#0B1F45"/>
<path d="M15.585 37.7843C15.7833 37.7764 15.9865 37.8315 16.1592 37.9272C16.4534 38.0899 16.6613 38.3835 16.7421 38.7077C16.8242 39.0372 16.7791 39.3863 16.6012 39.6772C16.4128 39.9854 16.1381 40.1446 15.7978 40.2336C15.5597 40.2459 15.3346 40.2001 15.1275 40.0785C14.8435 39.9116 14.6587 39.6303 14.5865 39.3128C14.5814 39.2915 14.577 39.2701 14.5732 39.2486C14.5696 39.227 14.5661 39.2052 14.5632 39.1836C14.5604 39.162 14.5581 39.1401 14.5566 39.1182C14.5549 39.0962 14.5537 39.0745 14.5533 39.0526C14.5527 39.0306 14.5525 39.0089 14.5531 38.987C14.5537 38.965 14.5545 38.9433 14.5562 38.9214C14.5575 38.8995 14.5598 38.8777 14.5626 38.8559C14.5653 38.834 14.5685 38.8126 14.5723 38.7911C14.576 38.7695 14.5802 38.748 14.5851 38.7266C14.5901 38.7053 14.5954 38.6841 14.6012 38.6631C14.6072 38.6421 14.6135 38.6209 14.6205 38.6004C14.6275 38.5795 14.635 38.559 14.6428 38.5384C14.6507 38.5181 14.6592 38.498 14.6683 38.478C14.6775 38.4581 14.6867 38.4382 14.6966 38.4188C14.7067 38.3992 14.7173 38.38 14.7281 38.361C14.7391 38.342 14.7504 38.3232 14.7624 38.3048C14.9613 38.0032 15.2395 37.8516 15.585 37.7843Z" fill="#FEFEFE"/>
<path d="M25.5097 36.2181C26.101 36.1641 26.6451 36.2513 27.1463 36.582C27.7805 37.0001 28.2077 37.6872 28.3584 38.4266C28.3678 38.4738 28.3759 38.5213 28.3829 38.5692C28.39 38.6168 28.3958 38.6648 28.4007 38.7126C28.4053 38.7604 28.4088 38.8088 28.4112 38.8567C28.4135 38.905 28.4145 38.9531 28.4145 39.0013C28.4145 39.0494 28.4133 39.0976 28.4109 39.1457C28.4085 39.194 28.405 39.2419 28.4002 39.2899C28.3952 39.3376 28.3896 39.3856 28.3824 39.4334C28.3753 39.481 28.3669 39.5285 28.3576 39.5757C28.3483 39.6229 28.3377 39.6699 28.3261 39.7168C28.3144 39.7633 28.3016 39.8101 28.2876 39.856C28.2736 39.9023 28.2585 39.9481 28.2423 39.9932C28.2261 40.0385 28.2088 40.0836 28.1902 40.128C28.1718 40.1726 28.1523 40.2164 28.1316 40.26C28.1109 40.3035 28.0895 40.3465 28.0668 40.389C28.0441 40.4315 28.0204 40.4733 27.9956 40.5146C27.9707 40.556 27.945 40.5966 27.9182 40.6366C27.4915 41.2769 26.8857 41.6465 26.1392 41.798C26.1039 41.8026 26.0685 41.8066 26.033 41.8095C25.9974 41.8125 25.9618 41.8146 25.9262 41.816C25.8905 41.8174 25.8548 41.8181 25.8192 41.8181C25.7835 41.818 25.7479 41.8171 25.7123 41.8154C25.6767 41.8136 25.6411 41.8111 25.6055 41.8079C25.57 41.8049 25.5346 41.8008 25.4992 41.7959C25.4639 41.7909 25.4286 41.7854 25.3936 41.779C25.3586 41.7726 25.3238 41.7655 25.2888 41.7576C25.2541 41.7496 25.2195 41.7411 25.185 41.7318C25.1507 41.7224 25.1165 41.7125 25.0824 41.7012C25.0483 41.6903 25.0147 41.6786 24.9813 41.6662C24.9478 41.6539 24.9147 41.6408 24.8816 41.627C24.8488 41.6131 24.8162 41.5985 24.7839 41.5833C24.7518 41.5681 24.7197 41.5521 24.6883 41.5355C24.6568 41.5191 24.6256 41.5014 24.5949 41.4834C24.5642 41.4655 24.5339 41.4468 24.5039 41.4273C24.4655 41.4022 24.4279 41.3758 24.3908 41.3488C24.3538 41.3217 24.3173 41.2937 24.2818 41.2647C24.2462 41.2361 24.2112 41.2061 24.177 41.1756C24.1427 41.145 24.1092 41.1135 24.0767 41.0813C24.0441 41.0492 24.0123 41.0162 23.9811 40.9823C23.9499 40.9485 23.9198 40.9139 23.8907 40.8788C23.8615 40.8435 23.8329 40.8074 23.8055 40.7707C23.7778 40.7337 23.7513 40.6966 23.7256 40.6585C23.6998 40.6207 23.6752 40.5818 23.6514 40.5426C23.6277 40.5033 23.6049 40.4634 23.5831 40.4231C23.5612 40.3826 23.5403 40.3418 23.5209 40.3004C23.5011 40.259 23.4824 40.217 23.4647 40.1749C23.4469 40.1324 23.4303 40.0899 23.4148 40.0466C23.3991 40.0035 23.3846 39.96 23.3711 39.9161C23.3577 39.8722 23.3454 39.828 23.3341 39.7834C23.3227 39.7388 23.3127 39.6942 23.3035 39.6492C23.1457 38.8643 23.2895 38.0195 23.7411 37.3542C24.1736 36.717 24.7579 36.3571 25.509 36.2179L25.5097 36.2181Z" fill="#0B1F45"/>
<path d="M25.6552 37.7821C25.8692 37.7647 26.0775 37.7878 26.2729 37.8807C26.5789 38.0259 26.7992 38.3091 26.9017 38.6283C26.9081 38.6482 26.9138 38.6681 26.9192 38.6882C26.9245 38.7085 26.9292 38.7287 26.9338 38.7491C26.938 38.7695 26.942 38.7899 26.9452 38.8107C26.9487 38.8314 26.9514 38.852 26.9537 38.8727C26.956 38.8935 26.9578 38.9144 26.959 38.9352C26.9604 38.9559 26.9612 38.9769 26.9613 38.9978C26.9615 39.0186 26.9613 39.0395 26.9606 39.0603C26.9598 39.0812 26.9584 39.102 26.9566 39.1229C26.9548 39.1437 26.9525 39.1643 26.9496 39.1851C26.9467 39.2058 26.9434 39.2265 26.9396 39.2471C26.9359 39.2678 26.9313 39.2879 26.9263 39.3084C26.9213 39.3287 26.9163 39.3489 26.9102 39.3688C26.9042 39.3888 26.8979 39.4087 26.8909 39.4285C26.884 39.4481 26.8765 39.4678 26.8688 39.4871C26.8609 39.5064 26.8525 39.5256 26.8438 39.5445C26.8347 39.5632 26.8257 39.5821 26.8158 39.6006C26.6493 39.9195 26.3877 40.1061 26.0503 40.2083C25.7692 40.2364 25.5278 40.2198 25.2779 40.07C25.0157 39.9131 24.8327 39.6407 24.7595 39.3466C24.6737 39.0011 24.7231 38.6082 24.9105 38.3038C25.0875 38.0166 25.336 37.8626 25.6552 37.7821Z" fill="#FEFEFE"/>
</g>
<defs>
<linearGradient id="paint0_linear_121_123" x1="-16.5032" y1="58.0938" x2="104.588" y2="-37.3112" gradientUnits="userSpaceOnUse">
<stop stop-color="#F58634"/>
<stop offset="1" stop-color="#FEFEFE"/>
</linearGradient>
<linearGradient id="paint1_linear_121_123" x1="13.3297" y1="19.0605" x2="38.6224" y2="5.90504" gradientUnits="userSpaceOnUse">
<stop stop-color="#00AFEF"/>
<stop offset="1" stop-color="#B2D5FF"/>
</linearGradient>
<clipPath id="clip0_121_123">
<rect width="153.578" height="44" fill="white"/>
</clipPath>
</defs>
</svg>
