<svg width="154" height="44" viewBox="0 0 154 44" fill="none" xmlns="http://www.w3.org/2000/svg">
<g clip-path="url(#clip0_121_192)">
<path d="M36.9029 25.6434C37.4015 25.6436 37.9016 25.6366 38.3999 25.649L43.1559 25.6426C43.9395 25.642 44.7603 25.6947 45.5402 25.6355C46.4681 25.6111 47.4015 25.6431 48.3307 25.6411C48.8938 25.6398 49.8639 25.5699 50.3849 25.6685C50.4168 25.6748 50.4486 25.6818 50.4801 25.69C50.5116 25.6985 50.5427 25.7078 50.5736 25.7183C50.6043 25.7289 50.6349 25.7405 50.6647 25.7533C50.6947 25.7661 50.7241 25.7799 50.7532 25.7947C50.7821 25.8096 50.8102 25.8254 50.8381 25.8423C50.8659 25.8595 50.8932 25.8773 50.9195 25.8962C50.9459 25.9149 50.9719 25.9347 50.9971 25.9556C51.0221 25.9763 51.0465 25.9979 51.0699 26.0204C51.4301 26.3665 51.5152 26.8502 51.5213 27.3285C51.5583 30.2724 51.5196 33.2214 51.5231 36.1657L51.5282 38.9153C51.5295 39.422 51.5735 39.9619 51.5033 40.4631C51.4976 40.5015 51.4904 40.5395 51.4817 40.5773C51.4731 40.615 51.463 40.6523 51.4514 40.6893C51.44 40.7263 51.4271 40.7628 51.4129 40.7989C51.3986 40.8348 51.383 40.8702 51.3661 40.9051C51.3489 40.9398 51.3308 40.974 51.3111 41.0074C51.2915 41.0409 51.2706 41.0734 51.2486 41.1051C51.2263 41.1369 51.2029 41.1678 51.1787 41.1979C51.1542 41.2279 51.1286 41.257 51.102 41.285C50.7653 41.6396 50.3363 41.7085 49.8717 41.7126C45.8768 41.7477 41.8714 41.751 37.8768 41.7012C37.1889 41.6819 35.5186 41.779 34.9589 41.6213C34.7165 41.553 34.4954 41.4084 34.3171 41.2325C34.1013 41.0199 33.9306 40.7465 33.8564 40.4511C33.7015 39.8346 33.7803 39.0757 33.78 38.4373L33.7811 35.4319L33.7842 33.8431L33.7869 29.1553C33.7869 28.5179 33.7163 27.4064 33.8373 26.8161C33.8942 26.5382 34.0592 26.2628 34.2582 26.0632C34.7297 25.5903 35.2726 25.6335 35.8893 25.6399L36.9022 25.6429L36.9029 25.6434Z" fill="#4ABFF6"/>
<path d="M37.6668 34.4582C37.694 34.4559 37.7214 34.4531 37.7488 34.4525C38.0021 34.4445 38.2585 34.5148 38.4441 34.695C38.5938 34.8402 38.6838 35.0353 38.7243 35.2382C38.7926 35.5804 38.7529 35.9586 38.7535 36.3069L38.7614 38.2489L38.0834 38.2519L36.9268 38.2536C36.9276 37.6019 36.8249 35.561 37.023 35.0753C37.1528 34.758 37.3604 34.5872 37.6666 34.4582H37.6668Z" fill="#FEFEFE"/>
<path d="M40.7653 32.6392C40.7895 32.6364 40.8139 32.6338 40.8381 32.6323C41.1069 32.6165 41.3476 32.6647 41.5479 32.8568C41.6784 32.9818 41.7698 33.1336 41.8076 33.3099C41.9258 33.8634 41.8604 34.5166 41.861 35.0843L41.8596 38.2349L41.1531 38.2357L40.0375 38.2291C40.0374 37.4893 39.9581 33.6908 40.1056 33.2912C40.2246 32.969 40.4631 32.7754 40.7656 32.6392H40.7653Z" fill="#FEFEFE"/>
<path d="M43.8579 30.9371C44.1416 30.9324 44.3943 30.9905 44.605 31.1967C44.7798 31.3675 44.8361 31.5862 44.8676 31.8203C44.9516 32.4443 44.8892 33.2692 44.8889 33.9137L44.8865 38.232L44.1437 38.2297L43.0405 38.2276L43.0574 34.2292C43.058 33.4746 43.0085 32.682 43.0697 31.932C43.0831 31.7678 43.1102 31.6039 43.1867 31.4559C43.33 31.1786 43.5665 31.0234 43.8573 30.9369L43.8579 30.9371Z" fill="#FEFEFE"/>
<path d="M46.9825 29.4092L47.0173 29.4086C47.2735 29.4068 47.5019 29.4626 47.6861 29.6505C47.8136 29.7803 47.9314 29.9866 47.9565 30.1684C48.0533 30.8704 47.9873 32.0615 47.9871 32.8033L47.9849 38.2239L47.2316 38.2232L46.1734 38.2239L46.1745 32.9653C46.1746 32.1075 46.1153 31.201 46.1925 30.3478C46.2089 30.163 46.2405 29.9898 46.3428 29.8306C46.4927 29.5972 46.7174 29.4696 46.9825 29.4094V29.4092Z" fill="#FEFEFE"/>
<path d="M16.2258 18.5009L16.2279 6.67442L16.2237 3.36554C16.2231 2.83849 16.1649 2.23823 16.2485 1.71955C16.317 1.29538 16.5294 0.875781 16.8271 0.566976C17.2364 0.142504 17.6618 0.0233346 18.2386 0.0183121H28.6477C29.1718 0.0184643 31.834 -0.0344997 32.0998 0.0405326C32.1832 0.0641229 32.3457 0.23656 32.4093 0.300026C32.693 0.581891 32.9493 0.906067 33.2155 1.20559C33.675 1.72229 34.1383 2.23565 34.6052 2.74535C35.7607 4.02227 36.9557 5.27514 38.0807 6.57763C38.1807 6.6933 38.3328 6.85584 38.3882 6.99921C38.4553 7.17286 38.3961 9.93856 38.3999 10.3965L38.4001 25.6489C37.9016 25.6366 37.4016 25.6433 36.9031 25.6433L35.8902 25.6402C35.2733 25.6339 34.7306 25.5905 34.2591 26.0635C34.0599 26.2632 33.8951 26.5387 33.8381 26.8164C33.717 27.4071 33.7878 28.5186 33.7878 29.1557L33.785 33.8434L33.782 35.4322L20.1698 35.4112L16.2748 35.4223C15.5251 35.4256 14.7363 35.4727 13.9911 35.3917C13.4504 35.333 12.9096 35.1223 12.45 34.8353C12.3641 34.7817 12.2804 34.7251 12.1986 34.6654C12.1167 34.6061 12.0371 34.5437 11.9596 34.4787C11.882 34.4137 11.807 34.346 11.7342 34.276C11.6615 34.2058 11.591 34.133 11.5234 34.0579C11.4557 33.9828 11.3906 33.9054 11.3283 33.8258C11.2661 33.7462 11.2064 33.6644 11.1499 33.5804C11.0932 33.4967 11.0396 33.411 10.9888 33.3235C10.9381 33.236 10.8906 33.1467 10.846 33.056C10.3482 32.0601 10.1978 30.8421 9.96205 29.7614C9.69373 28.5352 9.41932 27.3104 9.13882 26.0872C8.70461 23.9326 8.17953 21.787 7.69555 19.6424L7.12102 17.0627C7.00535 16.5326 6.9049 15.992 6.76518 15.4677C6.72226 15.3062 6.65454 15.0377 6.53613 14.919C6.24833 14.6304 5.54016 14.7175 5.16363 14.7216C5.01676 14.9934 4.85909 15.2357 4.58362 15.3949C4.41072 15.4948 4.22048 15.5439 4.02369 15.5661C3.60972 15.6133 1.46102 15.6037 1.09515 15.5056C0.724703 15.4059 0.402658 15.1677 0.214849 14.8312C-0.03186 14.3894 -0.0548415 13.7654 0.0885265 13.2872C0.201912 12.9083 0.45547 12.5872 0.807497 12.4046C0.888313 12.3633 0.972325 12.3298 1.05923 12.304C1.14613 12.278 1.23471 12.26 1.32496 12.2499C1.74045 12.2011 4.0071 12.2023 4.30084 12.2997C4.74373 12.4467 5.00794 12.8018 5.20442 13.203C5.83999 13.208 6.57053 13.1071 7.13532 13.4617C7.47137 13.6728 7.73878 13.9996 7.90665 14.3571C8.1596 14.8959 8.23098 15.5349 8.35973 16.1136L8.90048 18.5143L16.226 18.5008L16.2258 18.5009Z" fill="#0B1F45"/>
<path d="M32.6215 2.91586C32.6898 2.95026 32.7298 3.00307 32.7805 3.05877C33.0701 3.37397 35.7669 6.31545 35.7941 6.40844C35.8004 6.42868 35.7923 6.45075 35.7914 6.47191C35.2036 6.44679 34.6093 6.4573 34.0208 6.46399C33.7188 6.46749 33.3939 6.49656 33.0954 6.45577C32.9733 6.43903 32.8507 6.40159 32.7587 6.31545C32.6717 6.23403 32.6283 6.11562 32.6125 5.99934C32.5682 5.67684 32.6101 5.3 32.6133 4.97187C32.6215 4.28653 32.6239 3.60135 32.6212 2.91571L32.6215 2.91586Z" fill="#00AFEF"/>
<path d="M13.2254 30.9781L16.1027 30.9802V33.8546L14.5772 33.8569C14.006 33.8397 13.5286 33.7128 13.0577 33.3796C12.2171 32.7857 11.8913 31.9624 11.724 30.9839L13.2254 30.9783V30.9781ZM38.3998 10.3969C38.6764 10.1503 38.9501 9.8919 39.2473 9.67015C39.3186 9.61673 39.3905 9.56468 39.4637 9.51446C39.5373 9.46438 39.6114 9.41538 39.687 9.36865C39.7625 9.32162 39.8391 9.27627 39.9167 9.23274C39.9943 9.18906 40.0724 9.14706 40.1521 9.10718C40.2313 9.06715 40.3116 9.0288 40.3926 8.99227C40.4734 8.95575 40.5553 8.92105 40.6381 8.88817C40.7209 8.8553 40.804 8.82425 40.8878 8.79488C40.9719 8.76566 41.0566 8.73856 41.1419 8.713C41.2271 8.68788 41.3129 8.66414 41.3989 8.64238C41.4852 8.62077 41.572 8.60113 41.659 8.58333C41.7461 8.56552 41.8337 8.54969 41.9216 8.53584C42.0094 8.52199 42.0975 8.51027 42.1858 8.50023C42.2742 8.49033 42.3628 8.48242 42.4512 8.47648C42.5399 8.47055 42.6288 8.46644 42.7177 8.46446C42.8069 8.46233 42.8955 8.46233 42.9845 8.46431C43.0732 8.46644 43.1621 8.47009 43.2508 8.47603C43.302 8.47907 43.3531 8.48257 43.4042 8.48699C43.4554 8.49125 43.5064 8.49642 43.5575 8.5019C43.6085 8.50753 43.6595 8.51392 43.7102 8.52062C43.7611 8.52747 43.8118 8.53493 43.8627 8.54315C43.9133 8.55121 43.964 8.56004 44.0145 8.56948C44.0649 8.57891 44.1151 8.5888 44.1655 8.59961C44.2156 8.61026 44.2658 8.62153 44.3157 8.6334C44.3655 8.64542 44.4154 8.6579 44.4649 8.67114C44.5147 8.68438 44.564 8.69823 44.6133 8.71254C44.6626 8.72685 44.7118 8.74176 44.7606 8.75744C44.8095 8.77311 44.8582 8.7894 44.9067 8.80629C44.955 8.82303 45.0032 8.84054 45.0513 8.85865C45.0994 8.87676 45.1472 8.89533 45.1947 8.91481C45.2423 8.93414 45.2895 8.95407 45.3367 8.97416C45.3838 8.99456 45.4306 9.01556 45.4771 9.03732C45.5237 9.05894 45.57 9.081 45.6159 9.10368C45.6619 9.12651 45.7076 9.14995 45.7531 9.17354C45.7984 9.19774 45.8436 9.22209 45.8884 9.2472C45.9331 9.27231 45.9777 9.29788 46.0218 9.32421C46.0658 9.35024 46.1097 9.37702 46.1532 9.40427C46.1967 9.43166 46.2398 9.45951 46.2826 9.48782C46.3253 9.51613 46.3678 9.5449 46.4101 9.57442C46.452 9.60364 46.4937 9.63378 46.535 9.66422C46.5763 9.69481 46.6171 9.72555 46.6577 9.75706C46.6982 9.78856 46.7384 9.82052 46.7783 9.85324C46.8178 9.88566 46.8571 9.91869 46.8961 9.95232C46.935 9.98581 46.9734 10.0197 47.0116 10.0543C47.0495 10.0887 47.0872 10.1235 47.1244 10.1592C47.1615 10.1945 47.1985 10.2304 47.2347 10.2666C47.2708 10.303 47.3067 10.3397 47.3421 10.3769C47.3774 10.4141 47.412 10.4517 47.4467 10.4897C47.4811 10.5276 47.515 10.5663 47.5487 10.6051C48.8728 12.1164 49.5625 14.2623 49.4249 16.2604C49.3872 16.8107 49.3216 17.4303 49.1498 17.954C48.9285 18.6307 48.4227 19.5227 48.106 20.1998L45.5406 25.6351C44.7609 25.6945 43.94 25.6417 43.1563 25.6426L38.4004 25.6488L38.4002 10.3966L38.3998 10.3969ZM49.7485 5.14965C49.7995 5.14554 49.8505 5.14371 49.9013 5.14401C49.9524 5.14447 50.0033 5.14706 50.054 5.15223C50.1049 5.15726 50.1553 5.16426 50.2055 5.17384C50.2556 5.18313 50.3054 5.1947 50.3545 5.20855C50.4037 5.22239 50.4521 5.23853 50.5 5.25633C50.5477 5.27429 50.5946 5.29423 50.6407 5.3166C50.6865 5.33882 50.7314 5.36287 50.7754 5.3892C50.819 5.41538 50.8617 5.44338 50.9031 5.47321C51.3701 5.80774 51.6543 6.34377 51.7388 6.90552C51.7444 6.94053 51.7488 6.97584 51.7528 7.01115C51.7564 7.04646 51.7593 7.08177 51.7614 7.11723C51.7636 7.15269 51.7645 7.18815 51.7648 7.22361C51.7649 7.25923 51.7643 7.29453 51.7627 7.33C51.761 7.36546 51.7585 7.40092 51.7552 7.43623C51.7519 7.47154 51.7477 7.50685 51.7426 7.542C51.7374 7.57701 51.7315 7.61217 51.7246 7.64702C51.7181 7.68187 51.71 7.71657 51.7015 7.75097C51.6928 7.78536 51.6834 7.81961 51.673 7.8537C51.6627 7.88779 51.6516 7.92143 51.6395 7.95476C51.6275 7.98824 51.6147 8.02112 51.601 8.05414C51.5875 8.08702 51.573 8.11928 51.5577 8.15124C51.5421 8.18336 51.5261 8.21501 51.5091 8.24606C51.4922 8.27741 51.4747 8.30816 51.4561 8.33875C51.4376 8.36934 51.4185 8.39871 51.3986 8.42854C51.3787 8.45776 51.358 8.48668 51.3367 8.51514C51.0091 8.95316 50.5819 9.17932 50.048 9.2609C49.9992 9.26379 49.9503 9.26455 49.9012 9.26364C49.852 9.26242 49.8034 9.25938 49.7547 9.2539C49.706 9.24872 49.6576 9.24157 49.6096 9.23198C49.5615 9.2227 49.5137 9.21128 49.4666 9.19789C49.4195 9.18465 49.373 9.16943 49.3269 9.15223C49.281 9.13503 49.2358 9.11586 49.1913 9.09516C49.147 9.07431 49.1037 9.05148 49.0612 9.02682C49.0189 9.00201 48.9775 8.97614 48.9371 8.94798C48.9087 8.92866 48.8807 8.90841 48.8531 8.88741C48.8257 8.86656 48.799 8.84495 48.7725 8.82258C48.7461 8.80036 48.7203 8.77737 48.6949 8.75394C48.6697 8.73035 48.6451 8.7063 48.6212 8.68149C48.597 8.65668 48.574 8.63142 48.5513 8.60539C48.5287 8.57937 48.5064 8.55273 48.4851 8.5258C48.4637 8.4987 48.443 8.47116 48.4232 8.443C48.4032 8.415 48.3839 8.38623 48.3654 8.35716C48.3468 8.32794 48.329 8.29842 48.3119 8.26843C48.2947 8.23845 48.2784 8.20816 48.2631 8.17727C48.2476 8.14637 48.2329 8.11532 48.2189 8.08367C48.2051 8.05216 48.1918 8.0202 48.1795 7.98809C48.1673 7.95598 48.1558 7.92325 48.1451 7.89053C48.1345 7.85766 48.1244 7.82478 48.1156 7.79145C48.1065 7.75797 48.0984 7.72464 48.0911 7.69085C48.0836 7.65706 48.0772 7.62312 48.0718 7.58919C47.9727 7.01176 48.0946 6.43235 48.4361 5.95461C48.7629 5.49665 49.1982 5.24203 49.7477 5.14904L49.7485 5.14965ZM9.13807 26.0878C9.41857 27.3111 9.69297 28.5358 9.96129 29.7619C10.1973 30.8427 10.3474 32.0605 10.8452 33.0565C10.8895 33.1472 10.9373 33.2365 10.9882 33.3241C11.0388 33.4116 11.0923 33.4974 11.149 33.581C11.2058 33.665 11.2653 33.7465 11.3277 33.8263C11.39 33.9059 11.4552 33.9832 11.5228 34.0584C11.5905 34.1334 11.6606 34.206 11.7336 34.2765C11.8064 34.3468 11.8812 34.4142 11.959 34.4792C12.0366 34.5442 12.1159 34.6064 12.198 34.666C12.2797 34.7253 12.3635 34.7821 12.4492 34.8358C12.9093 35.1227 13.4498 35.3336 13.9908 35.3922C14.7357 35.473 15.5246 35.426 16.2742 35.4228L20.1692 35.4117L33.7812 35.4327L33.7805 38.4381C33.7806 39.0764 33.7019 39.8351 33.8569 40.4517C33.931 40.7472 34.1018 41.0204 34.3176 41.233C34.4959 41.409 34.7169 41.5536 34.9594 41.6219C35.5193 41.7797 37.1892 41.6823 37.8773 41.7018C37.2909 42.2614 36.7009 42.7757 35.9868 43.1684C35.8911 43.2219 35.7942 43.2732 35.696 43.3218C35.5975 43.3705 35.498 43.4166 35.3972 43.46C35.2966 43.5033 35.1947 43.5443 35.0918 43.5823C34.9889 43.6202 34.8851 43.6558 34.7806 43.6886C34.6757 43.7214 34.5704 43.7514 34.4641 43.7785C34.3577 43.8057 34.2508 43.8301 34.1436 43.852C34.0359 43.8736 33.9281 43.8925 33.8196 43.9085C33.7111 43.9243 33.6021 43.9375 33.493 43.9477C32.5276 44.0433 31.5146 43.9783 30.5424 43.9779L24.9416 43.9748L16.8652 43.9709C15.3906 43.9723 13.7802 44.0336 12.3188 43.9579C11.7082 43.9264 11.0839 43.8388 10.4967 43.6676C8.24727 43.0113 6.40358 41.4376 5.27931 39.3962C5.23913 39.3234 5.20017 39.2501 5.16166 39.1764C5.12331 39.1028 5.08602 39.0283 5.04949 38.9536C5.01312 38.8789 4.97751 38.8038 4.94311 38.7284C4.90841 38.6527 4.87477 38.5768 4.84205 38.5002C4.80918 38.4238 4.77767 38.347 4.74693 38.2698C4.71603 38.1926 4.68636 38.115 4.65744 38.0371C4.62852 37.9592 4.60067 37.8809 4.57373 37.8021C4.54664 37.7236 4.52092 37.6444 4.49596 37.5651C4.471 37.486 4.4468 37.4062 4.42397 37.3265C4.40114 37.2466 4.37907 37.1664 4.35822 37.086C4.33722 37.0055 4.31743 36.9248 4.29826 36.844C4.27923 36.7629 4.26127 36.6819 4.24438 36.6004C4.22749 36.5189 4.21151 36.4377 4.19659 36.3556C4.18168 36.2739 4.16798 36.192 4.15489 36.1097C4.14195 36.0277 4.13008 35.945 4.11943 35.863C4.10877 35.7805 4.09873 35.698 4.0899 35.6154C4.08123 35.5326 4.07347 35.4498 4.06677 35.367C4.06022 35.2842 4.05444 35.2014 4.04957 35.1181C4.04485 35.0352 4.04135 34.9522 4.03892 34.8691C4.03618 34.7857 4.03481 34.7029 4.03435 34.6197C4.03389 34.5366 4.03435 34.4535 4.03572 34.3705C4.03709 34.2871 4.03998 34.2043 4.04363 34.1214C4.04729 34.0383 4.05216 33.9554 4.05764 33.8724C4.06342 33.7895 4.06996 33.7068 4.07788 33.6239C4.08579 33.5411 4.09432 33.4584 4.10421 33.3759C4.1141 33.2932 4.12491 33.211 4.13708 33.1288C4.1488 33.0464 4.16189 32.9641 4.17559 32.8825C4.18959 32.8005 4.20451 32.7185 4.22049 32.6372C4.23631 32.5558 4.25336 32.4742 4.27117 32.3932C4.28913 32.3121 4.30815 32.2311 4.32824 32.1505C4.34818 32.0698 4.36903 31.9893 4.3911 31.9091C4.41317 31.8289 4.43599 31.7493 4.46004 31.6695C5.21554 29.097 6.81587 27.3531 9.13868 26.0885L9.13807 26.0878Z" fill="url(#paint0_linear_121_192)"/>
<path d="M9.97279 20.0975C10.7727 20.0749 11.5788 20.0933 12.3793 20.0925L17.0029 20.0873L31.1045 20.089L28.8138 27.6743C28.6322 28.2429 28.4857 28.8217 28.2897 29.3863L11.3786 29.3898C11.106 28.336 10.8767 27.2685 10.6345 26.2073C10.1681 24.18 9.7133 22.1502 9.26904 20.1181L9.97234 20.0978L9.97279 20.0975Z" fill="#FEFEFE"/>
<path d="M14.3436 25.7541C14.8835 25.7235 15.4392 25.7462 15.9804 25.7462L19.0857 25.7461L23.7433 25.7491C24.2959 25.7492 24.8514 25.7191 25.4034 25.7313C25.5527 25.7343 25.7025 25.7456 25.8424 25.8033C26.0305 25.8809 26.1713 26.0284 26.2426 26.2185C26.253 26.2468 26.262 26.2755 26.2694 26.3051C26.2769 26.3343 26.2828 26.3641 26.2872 26.3938C26.2915 26.4238 26.2944 26.4538 26.2958 26.4842C26.2971 26.5143 26.2968 26.5446 26.295 26.5748C26.2932 26.6049 26.2898 26.635 26.285 26.6649C26.2799 26.6948 26.2735 26.7242 26.2656 26.7533C26.2577 26.7825 26.2481 26.8113 26.2373 26.8396C26.2264 26.8676 26.2137 26.8953 26.2002 26.9224C26.0736 27.17 25.8892 27.2852 25.6343 27.3662C25.1698 27.3928 24.6811 27.3564 24.2136 27.3552L21.023 27.3506L16.0646 27.3488C15.5441 27.3467 15.017 27.3765 14.4982 27.3615C14.3559 27.3573 14.2166 27.3379 14.0859 27.2784C13.904 27.1953 13.7692 27.0484 13.7046 26.8588C13.6958 26.8324 13.6884 26.8055 13.6821 26.7782C13.6759 26.751 13.671 26.7233 13.6675 26.6958C13.664 26.6681 13.6617 26.6402 13.661 26.6124C13.6602 26.5845 13.6608 26.5566 13.6628 26.5288C13.6646 26.5009 13.668 26.4732 13.6727 26.4458C13.6772 26.4181 13.6833 26.3909 13.6906 26.3641C13.6978 26.337 13.7065 26.3107 13.7164 26.2847C13.7263 26.2586 13.7377 26.2331 13.75 26.2081C13.8804 25.95 14.0768 25.8322 14.3436 25.7541Z" fill="#0B1F45"/>
<path d="M13.3838 22.108C14.4007 22.0806 15.4263 22.1133 16.4439 22.115L22.2862 22.1125C22.8533 22.1121 26.5968 22.0348 26.8534 22.1197C27.0606 22.188 27.221 22.3538 27.309 22.551C27.3204 22.5758 27.3303 22.6014 27.3386 22.6274C27.3473 22.6534 27.3545 22.6798 27.3606 22.7064C27.3663 22.733 27.3709 22.76 27.3739 22.7872C27.377 22.8143 27.379 22.8414 27.3791 22.869C27.3793 22.8962 27.3784 22.9234 27.3761 22.9507C27.3736 22.9779 27.3697 23.0049 27.3645 23.0318C27.3592 23.0586 27.3525 23.0851 27.3446 23.1113C27.3367 23.1374 27.3274 23.163 27.3167 23.1883C27.2033 23.4546 27.0091 23.5887 26.7515 23.6934L18.0791 23.6929L14.9988 23.6936C14.4824 23.6943 13.955 23.7216 13.4399 23.6937C13.2944 23.6858 13.151 23.6651 13.0244 23.5879C12.8463 23.4793 12.7591 23.2946 12.7099 23.0988C12.6548 22.8778 12.6828 22.6656 12.8105 22.4742C12.9562 22.2559 13.1298 22.1538 13.3838 22.108Z" fill="#0B1F45"/>
<path d="M19.5341 1.62294C23.3974 1.55947 27.2689 1.63085 31.1333 1.61411L31.138 4.56077C31.1388 5.20805 31.0644 5.95305 31.2189 6.58192C31.2304 6.6291 31.2438 6.67613 31.2587 6.72255C31.2736 6.76897 31.2899 6.81493 31.3079 6.86029C31.3257 6.90564 31.345 6.95038 31.3657 6.99437C31.3866 7.03851 31.4088 7.08188 31.4325 7.1245C31.4563 7.16696 31.4814 7.20881 31.5079 7.24975C31.5342 7.29054 31.5621 7.33057 31.5913 7.36968C31.6203 7.40895 31.6506 7.44685 31.6824 7.48383C31.7139 7.52097 31.7468 7.55704 31.7809 7.59174C31.9928 7.80511 32.2547 7.9634 32.5481 8.03402C33.0257 8.14892 33.6067 8.09018 34.0972 8.09018C35.0341 8.09018 35.9734 8.07572 36.9102 8.09018L36.904 20.7754C36.9041 22.397 36.9301 24.0226 36.9038 25.6433L35.8909 25.6403C35.2741 25.6339 34.7314 25.5905 34.2599 26.0635C34.0606 26.2632 33.8958 26.5387 33.8389 26.8164C33.7178 27.4068 33.7884 28.5186 33.7884 29.1557L33.7856 33.8434C32.0016 33.8619 30.2154 33.8447 28.4308 33.8445L17.5829 33.847L17.5815 30.9639L29.3928 30.9638C29.8352 29.6403 30.1812 28.2749 30.572 26.9345L32.1829 21.575C32.4854 20.5513 32.7265 19.4856 33.0878 18.4822C27.9468 18.523 22.8058 18.5268 17.6646 18.4936L17.6578 10.2529C17.6578 8.77916 17.6339 7.30196 17.6663 5.82901C17.6141 5.24747 17.6582 4.62454 17.6578 4.03919C17.6573 3.37136 17.6176 2.67461 17.6648 2.00967C17.6704 1.93007 17.6774 1.8523 17.7299 1.78868C17.7362 1.78107 17.7435 1.77407 17.7502 1.76661C17.7675 1.74667 17.7744 1.73632 17.7939 1.71837C17.9871 1.54091 19.2211 1.61442 19.5347 1.62279L19.5341 1.62294Z" fill="url(#paint1_linear_121_192)"/>
<path d="M21.0593 8.34523C21.6915 8.29927 22.3479 8.33169 22.9835 8.33169L26.6334 8.33382L29.4816 8.33306C30.0421 8.33306 30.705 8.26411 31.2474 8.38952C31.4052 8.4259 31.5353 8.55191 31.6155 8.68919C31.6276 8.70989 31.6384 8.73059 31.6484 8.75251C31.6583 8.77442 31.667 8.79619 31.6744 8.81886C31.682 8.84139 31.6883 8.86452 31.6935 8.8875C31.6986 8.91079 31.7026 8.93408 31.705 8.95812C31.7078 8.98187 31.7091 9.00561 31.7093 9.02935C31.7094 9.05325 31.7085 9.07699 31.7059 9.10073C31.7035 9.12447 31.7 9.14791 31.6953 9.17135C31.6903 9.19463 31.6843 9.21762 31.6772 9.24045C31.5986 9.49248 31.4341 9.62809 31.2057 9.74239C30.5336 9.79657 29.8376 9.76095 29.1621 9.76308L24.8288 9.75684L22.3091 9.75852C21.9487 9.75867 21.4544 9.81909 21.1072 9.73219C20.9517 9.69323 20.7928 9.56401 20.7107 9.42871C20.6072 9.25749 20.5896 9.04137 20.6416 8.85022C20.7097 8.60138 20.8477 8.47277 21.0591 8.34508L21.0593 8.34523Z" fill="#FEFEFE"/>
<path d="M21.121 15.5772C21.6479 15.5326 22.2028 15.5665 22.7326 15.5673L25.8424 15.5743L30.2361 15.5795C31.1336 15.5772 32.0375 15.5518 32.9344 15.5773C33.0933 15.5819 33.286 15.5656 33.421 15.6549C33.6086 15.779 33.7343 15.9552 33.7715 16.1796C33.803 16.3693 33.7636 16.581 33.6462 16.736C33.5307 16.8879 33.3916 16.9726 33.2044 17.0014L24.3713 16.9923C23.7556 16.9905 23.1399 16.9923 22.5244 16.9973C22.0823 17.0016 21.5584 17.0647 21.1298 16.9693C20.961 16.9317 20.8234 16.845 20.7364 16.6925C20.6274 16.5019 20.6256 16.2525 20.693 16.0481C20.7716 15.81 20.9021 15.6883 21.1208 15.5772H21.121Z" fill="#FEFEFE"/>
<path d="M21.1778 11.9316C21.9527 11.9078 22.7353 11.9422 23.5112 11.9413L29.255 11.9436L31.9311 11.9477C32.3234 11.9485 32.9625 11.8849 33.3221 11.9877C33.4806 12.033 33.6174 12.181 33.6881 12.3252C33.7827 12.5177 33.7988 12.7464 33.7213 12.9478C33.6399 13.1595 33.4746 13.2764 33.2728 13.3627C32.7833 13.4213 32.2613 13.379 31.7668 13.3755L29.1938 13.3692L23.3299 13.3831C22.7149 13.3817 22.0936 13.4047 21.48 13.3899C21.3337 13.3864 21.1833 13.372 21.0474 13.3149C20.8868 13.2475 20.7678 13.123 20.7062 12.9601C20.6263 12.749 20.6493 12.5058 20.745 12.3043C20.8406 12.1036 20.9715 12.0018 21.1781 11.9317L21.1778 11.9316Z" fill="#FEFEFE"/>
<path d="M64.6488 22.6545C67.1567 22.6545 69.299 21.4353 69.299 19.0843C69.299 14.7477 61.3049 15.6882 61.3049 12.7621C61.3049 11.6127 62.3672 11.0553 63.6562 11.0553C65.5198 11.0553 67.0871 12.0305 67.6968 13.6852L69.0725 12.5707C67.8883 10.6375 65.9027 9.71442 63.7082 9.71442C61.3918 9.71442 59.4761 10.8986 59.4761 12.919C59.4761 17.1861 67.4878 16.2457 67.4878 19.2412C67.4878 20.5475 66.2166 21.3138 64.7186 21.3138C62.9596 21.3138 61.0611 20.4428 60.2251 18.2832L58.7969 19.3803C60.1204 21.4704 62.0711 22.6548 64.6486 22.6548L64.6488 22.6545ZM73.7228 22.6545C74.1234 22.6545 74.6981 22.5848 75.2032 22.3934L75.3948 20.9825C74.8724 21.2263 74.5238 21.3135 73.984 21.3135C73.3396 21.3135 73.0087 21.0174 73.0087 20.3555V14.1725H75.3773V12.9361H73.0087V12.849C73.0087 12.2568 73.0262 11.3514 73.0784 10.5326C72.5733 10.8983 72.0682 11.1597 71.4238 11.3166V12.9361H69.6473V14.1725H71.4238V20.5469C71.4238 21.9926 72.2948 22.6544 73.7228 22.6544V22.6545ZM84.695 22.6545C85.0783 22.6545 85.3743 22.55 85.7053 22.4107L85.9318 21.2437C85.6358 21.4004 85.479 21.4353 85.2003 21.4353C84.8693 21.4353 84.7127 21.2437 84.7127 20.8603V15.8792C84.7127 14.0156 83.6327 12.6918 81.1947 12.6918C79.3311 12.6918 77.5198 13.4758 76.2484 15.1823L77.4326 16.1753C78.2688 14.66 79.6444 13.9286 81.0898 13.9286C82.5004 13.9286 83.1101 14.7819 83.1101 15.9489V16.2623C79.1043 16.6107 76.161 17.6557 76.161 20.1288C76.161 21.6092 77.3452 22.6542 79.2089 22.6542C81.0028 22.6542 82.4308 21.6267 83.1099 20.181V20.9473C83.1099 22.0273 83.7198 22.6542 84.6949 22.6542L84.695 22.6545ZM77.8332 20.0072C77.8332 18.4223 79.9405 17.743 83.1102 17.4644V18.0393C83.1102 20.0944 81.2818 21.4181 79.5574 21.4181C78.5471 21.4181 77.8332 20.8607 77.8332 20.0075V20.0072ZM87.1859 22.4107H88.7705V18.0392C88.7705 15.5138 90.8256 13.9986 92.3932 13.9986C93.9257 13.9986 94.5354 14.7822 94.5354 16.1234V22.4107H96.2074C96.1377 21.6444 96.1203 20.8954 96.1203 20.1465V15.8795C96.1203 14.0334 95.0752 12.6921 92.8984 12.6921C91.1742 12.6921 89.4674 13.8764 88.7707 15.6878V12.9359H87.186V22.4106L87.1859 22.4107ZM102.112 22.6545C103.662 22.6545 104.951 21.7663 105.612 20.4078V22.4107H107.284C107.215 21.6444 107.197 20.8954 107.197 20.1465V9.95793H105.612V14.9216C104.951 13.5805 103.644 12.6923 102.112 12.6923C99.4295 12.6923 97.6008 14.7127 97.6008 17.6735C97.6008 20.6343 99.4295 22.6545 102.112 22.6545ZM99.3076 17.6735C99.3076 15.479 100.596 13.9637 102.46 13.9637C104.202 13.9637 105.612 15.4268 105.612 17.2382V18.1092C105.612 19.8856 104.237 21.3834 102.46 21.3834C100.597 21.3834 99.3076 19.8681 99.3076 17.6736V17.6735ZM117.368 22.6545C117.752 22.6545 118.048 22.55 118.379 22.4107L118.605 21.2437C118.309 21.4004 118.152 21.4353 117.874 21.4353C117.543 21.4353 117.386 21.2437 117.386 20.8603V15.8792C117.386 14.0156 116.306 12.6918 113.868 12.6918C112.004 12.6918 110.193 13.4758 108.922 15.1823L110.106 16.1753C110.942 14.66 112.318 13.9286 113.763 13.9286C115.174 13.9286 115.783 14.7819 115.783 15.9489V16.2623C111.778 16.6107 108.834 17.6557 108.834 20.1288C108.834 21.6092 110.019 22.6542 111.882 22.6542C113.676 22.6542 115.104 21.6267 115.783 20.181V20.9473C115.783 22.0273 116.393 22.6542 117.368 22.6542L117.368 22.6545ZM110.506 20.0072C110.506 18.4223 112.614 17.743 115.784 17.4644V18.0393C115.784 20.0944 113.955 21.4181 112.231 21.4181C111.22 21.4181 110.506 20.8607 110.506 20.0075V20.0072ZM119.859 22.4107H121.549C121.479 21.6444 121.461 20.8954 121.461 20.1465V17.6908C121.461 15.7925 122.698 14.19 124.004 14.19C124.562 14.19 124.892 14.3468 125.293 14.7299L125.99 13.2668C125.537 12.8836 125.102 12.6918 124.44 12.6918C123.273 12.6918 122.106 13.7193 121.461 15.374V12.9356H119.859V22.4102V22.4107ZM130.222 22.6545C130.622 22.6545 131.197 22.5848 131.702 22.3934L131.894 20.9825C131.371 21.2263 131.023 21.3135 130.483 21.3135C129.839 21.3135 129.508 21.0174 129.508 20.3555V14.1725H131.876V12.9361H129.508V12.849C129.508 12.2568 129.525 11.3514 129.577 10.5326C129.072 10.8983 128.567 11.1597 127.923 11.3166V12.9361H126.146V14.1725H127.923V20.5469C127.923 21.9926 128.794 22.6544 130.222 22.6544V22.6545ZM133.2 22.4107H134.872C134.802 21.6444 134.785 20.8954 134.785 20.1465V9.95793H133.2V22.4107ZM144.956 22.6545C145.34 22.6545 145.636 22.55 145.967 22.4107L146.193 21.2437C145.897 21.4004 145.74 21.4353 145.462 21.4353C145.131 21.4353 144.974 21.2437 144.974 20.8603V15.8792C144.974 14.0156 143.894 12.6918 141.456 12.6918C139.592 12.6918 137.781 13.4758 136.51 15.1823L137.694 16.1753C138.53 14.66 139.906 13.9286 141.351 13.9286C142.762 13.9286 143.371 14.7819 143.371 15.9489V16.2623C139.366 16.6107 136.422 17.6557 136.422 20.1288C136.422 21.6092 137.607 22.6542 139.47 22.6542C141.264 22.6542 142.692 21.6267 143.371 20.181V20.9473C143.371 22.0273 143.981 22.6542 144.956 22.6542L144.956 22.6545ZM138.094 20.0072C138.094 18.4223 140.202 17.743 143.371 17.4644V18.0393C143.371 20.0944 141.543 21.4181 139.819 21.4181C138.808 21.4181 138.094 20.8607 138.094 20.0075V20.0072ZM147.447 22.4107H149.136C149.067 21.6444 149.049 20.8954 149.049 20.1465V17.6908C149.049 15.7925 150.286 14.19 151.592 14.19C152.149 14.19 152.48 14.3468 152.881 14.7299L153.578 13.2668C153.125 12.8836 152.689 12.6918 152.027 12.6918C150.86 12.6918 149.694 13.7193 149.049 15.374V12.9356H147.447V22.4102V22.4107Z" fill="#0B1F45"/>
<path d="M61.9385 34.5783C63.7562 34.5783 64.8036 33.2432 64.8036 31.6309C64.8036 30.0492 63.7355 28.7038 61.9385 28.7038C60.1107 28.7038 59.0835 30.0287 59.0835 31.6309C59.0835 33.2329 60.1107 34.5783 61.9385 34.5783ZM60.09 31.6411C60.09 30.4087 60.7677 29.433 61.9385 29.433C63.1196 29.433 63.7971 30.4087 63.7971 31.6309C63.7971 32.8632 63.1092 33.8491 61.9385 33.8491C60.7677 33.8491 60.09 32.8837 60.09 31.6411ZM65.7075 34.4345H66.6934C66.6523 33.9827 66.642 33.5411 66.642 33.0994V27.0915H65.7073V34.4343L65.7075 34.4345ZM72.6395 34.5783C72.8654 34.5783 73.04 34.5166 73.2351 34.4345L73.3685 33.7465C73.194 33.8389 73.1016 33.8593 72.9372 33.8593C72.7421 33.8593 72.6497 33.7465 72.6497 33.5204V30.5831C72.6497 29.4843 72.0129 28.7037 70.5752 28.7037C69.4763 28.7037 68.4084 29.1661 67.6586 30.1725L68.3569 30.7577C68.8499 29.8643 69.6612 29.4329 70.5137 29.4329C71.3454 29.4329 71.7051 29.9362 71.7051 30.6242V30.809C69.343 31.0145 67.6073 31.6307 67.6073 33.0889C67.6073 33.9619 68.3058 34.5781 69.4045 34.5781C70.4624 34.5781 71.3043 33.9721 71.7048 33.1199V33.5717C71.7048 34.2083 72.0644 34.5781 72.6394 34.5781L72.6395 34.5783ZM68.5933 33.0172C68.5933 32.0827 69.8359 31.6822 71.7052 31.5176V31.8566C71.7052 33.0683 70.6269 33.849 69.6104 33.849C69.0147 33.849 68.5936 33.5201 68.5936 33.0171L68.5933 33.0172ZM74.3753 36.5809C75.3201 36.5809 75.7926 36.1185 76.2239 35.1227L78.8838 28.8478H77.9492C77.8773 29.2278 77.795 29.4435 77.6309 29.8234L76.6245 32.2264C76.3676 32.8323 76.1315 33.3663 76.1315 33.3663C76.1315 33.3663 75.9673 32.8221 75.7207 32.2057L74.3446 28.8475H73.3279L75.6489 34.4445L75.4334 34.9682C75.1765 35.5741 74.9199 35.841 74.3653 35.841C74.0367 35.841 73.7801 35.7385 73.5128 35.5535L73.3174 36.3442C73.6771 36.4984 74.0364 36.5804 74.3753 36.5804V36.5809ZM79.5102 34.4345H80.4449V31.8567C80.4449 30.3678 81.6567 29.4741 82.5809 29.4741C83.4847 29.4741 83.8443 29.9365 83.8443 30.7268V34.4343H84.8302C84.7891 33.9826 84.7788 33.5409 84.7788 33.0992V30.5831C84.7788 29.4945 84.1625 28.7037 82.8789 28.7037C81.8623 28.7037 80.8558 29.4021 80.4449 30.4701V28.8477H79.5102V34.4345ZM90.5298 34.5783C91.4439 34.5783 92.2038 34.0546 92.5939 33.2534V34.4345H93.5798C93.5387 33.9827 93.5283 33.5411 93.5283 33.0994V27.0915H92.5937V30.0184C92.2035 29.2277 91.4331 28.7038 90.5296 28.7038C88.9482 28.7038 87.8697 29.8952 87.8697 31.6411C87.8697 33.3869 88.9482 34.5783 90.5296 34.5783H90.5298ZM88.8763 31.6411C88.8763 30.3469 89.6363 29.4536 90.7353 29.4536C91.7624 29.4536 92.5939 30.3162 92.5939 31.3842V31.8977C92.5939 32.9452 91.7827 33.8283 90.7353 33.8283C89.6364 33.8283 88.8763 32.9349 88.8763 31.6408V31.6411ZM97.2978 34.5783C99.1154 34.5783 100.163 33.2432 100.163 31.6309C100.163 30.0492 99.0947 28.7038 97.2978 28.7038C95.4699 28.7038 94.4427 30.0287 94.4427 31.6309C94.4427 33.2329 95.4699 34.5783 97.2978 34.5783ZM95.4492 31.6411C95.4492 30.4087 96.1269 29.433 97.2978 29.433C98.4788 29.433 99.1564 30.4087 99.1564 31.6309C99.1564 32.8632 98.4685 33.8491 97.2978 33.8491C96.1269 33.8491 95.4492 32.8837 95.4492 31.6411ZM101.221 26.9582C101.087 27.4819 100.882 28.0161 100.605 28.5498V29.5665H101.621V28.5498H101.005L101.816 27.451L101.221 26.958L101.221 26.9582ZM102.761 34.4345H103.696V32.5959L104.764 31.682L106.931 34.4343H108.061L105.452 31.0452L107.804 28.8477H106.674C106.469 29.1352 106.243 29.3817 105.945 29.6383L103.696 31.6615V27.0913H102.761V34.4341V34.4345ZM110.721 34.5783C112.538 34.5783 113.586 33.2432 113.586 31.6309C113.586 30.0492 112.518 28.7038 110.721 28.7038C108.893 28.7038 107.866 30.0287 107.866 31.6309C107.866 33.2329 108.893 34.5783 110.721 34.5783ZM108.872 31.6411C108.872 30.4087 109.55 29.433 110.721 29.433C111.902 29.433 112.579 30.4087 112.579 31.6309C112.579 32.8632 111.891 33.8491 110.721 33.8491C109.55 33.8491 108.872 32.8837 108.872 31.6411ZM114.489 34.4345H115.424V31.8567C115.424 30.3678 116.636 29.4741 117.56 29.4741C118.464 29.4741 118.824 29.9365 118.824 30.7268V34.4343H119.809C119.768 33.9826 119.758 33.5409 119.758 33.0992V30.5831C119.758 29.4945 119.142 28.7037 117.858 28.7037C116.841 28.7037 115.835 29.4021 115.424 30.4701V28.8477H114.489V34.4345ZM120.97 34.4345H121.956C121.915 33.9827 121.904 33.5411 121.904 33.0994V28.8475H120.97V34.4343L120.97 34.4345ZM120.908 28.0056H121.966V27.0094H120.908V28.0056Z" fill="#0B1F45"/>
<path d="M15.3701 36.2168C15.9521 36.1562 16.5108 36.2883 16.9995 36.6108C17.6165 37.0181 18.0414 37.6869 18.186 38.4087C18.1958 38.4573 18.2044 38.5058 18.2121 38.5548C18.2195 38.6037 18.2256 38.6525 18.2308 38.7018C18.2358 38.7512 18.2396 38.8005 18.2422 38.8498C18.2449 38.8992 18.2461 38.9486 18.2464 38.9982C18.2466 39.0476 18.2457 39.0973 18.2434 39.1466C18.2411 39.1959 18.2376 39.2452 18.2329 39.2945C18.2282 39.3437 18.2224 39.393 18.2151 39.4415C18.2079 39.4907 18.1996 39.5392 18.1901 39.5878C18.1807 39.6363 18.1699 39.6846 18.158 39.7327C18.146 39.7808 18.1331 39.8284 18.1188 39.8759C18.1044 39.9231 18.0891 39.9701 18.0725 40.0168C18.0561 40.0634 18.0382 40.1095 18.0195 40.1552C18.0008 40.2008 17.9807 40.2459 17.9597 40.2908C17.9384 40.3355 17.9163 40.3797 17.8931 40.4235C17.8699 40.4672 17.8456 40.5104 17.8203 40.5525C17.7949 40.595 17.7686 40.6369 17.7412 40.678C17.3167 41.314 16.7306 41.6567 15.9897 41.803C15.3932 41.8614 14.8329 41.7595 14.3282 41.4249C13.7197 41.0215 13.3143 40.3372 13.1742 39.6273C13.0175 38.8318 13.1622 38.0084 13.6186 37.3338C14.0401 36.7108 14.6409 36.3576 15.3704 36.2173L15.3701 36.2168Z" fill="#0B1F45"/>
<path d="M15.585 37.7844C15.7833 37.7765 15.9865 37.8316 16.1592 37.9273C16.4534 38.09 16.6613 38.3836 16.7421 38.7077C16.8242 39.0373 16.7791 39.3864 16.6012 39.6772C16.4128 39.9854 16.1381 40.1446 15.7978 40.2337C15.5597 40.246 15.3346 40.2002 15.1275 40.0786C14.8435 39.9116 14.6587 39.6304 14.5865 39.3129C14.5814 39.2916 14.577 39.2701 14.5732 39.2487C14.5696 39.227 14.5661 39.2053 14.5632 39.1837C14.5604 39.1621 14.5581 39.1401 14.5566 39.1182C14.5549 39.0963 14.5537 39.0745 14.5533 39.0526C14.5527 39.0307 14.5525 39.0089 14.5531 38.987C14.5537 38.9651 14.5545 38.9433 14.5562 38.9214C14.5575 38.8995 14.5598 38.8778 14.5626 38.856C14.5653 38.8341 14.5685 38.8126 14.5723 38.7912C14.576 38.7695 14.5802 38.7481 14.5851 38.7266C14.5901 38.7053 14.5954 38.6842 14.6012 38.6632C14.6072 38.6422 14.6135 38.621 14.6205 38.6005C14.6275 38.5796 14.635 38.5591 14.6428 38.5385C14.6507 38.5181 14.6592 38.498 14.6683 38.4781C14.6775 38.4581 14.6867 38.4382 14.6966 38.4189C14.7067 38.3992 14.7173 38.3801 14.7281 38.361C14.7391 38.342 14.7504 38.3233 14.7624 38.3049C14.9613 38.0032 15.2395 37.8517 15.585 37.7844Z" fill="#FEFEFE"/>
<path d="M25.5097 36.2182C26.101 36.1641 26.6451 36.2513 27.1463 36.5821C27.7805 37.0001 28.2077 37.6873 28.3584 38.4267C28.3678 38.4738 28.3759 38.5213 28.3829 38.5693C28.39 38.6169 28.3958 38.6649 28.4007 38.7126C28.4053 38.7604 28.4088 38.8088 28.4112 38.8568C28.4135 38.905 28.4145 38.9531 28.4145 39.0014C28.4145 39.0495 28.4133 39.0977 28.4109 39.1458C28.4085 39.194 28.405 39.242 28.4002 39.2899C28.3952 39.3377 28.3896 39.3856 28.3824 39.4334C28.3753 39.4811 28.3669 39.5286 28.3576 39.5757C28.3483 39.6229 28.3377 39.67 28.3261 39.7168C28.3144 39.7634 28.3016 39.8101 28.2876 39.8561C28.2736 39.9024 28.2585 39.9482 28.2423 39.9932C28.2261 40.0386 28.2088 40.0836 28.1902 40.1281C28.1718 40.1727 28.1523 40.2165 28.1316 40.26C28.1109 40.3035 28.0895 40.3466 28.0668 40.3891C28.0441 40.4315 28.0204 40.4734 27.9956 40.5146C27.9707 40.556 27.945 40.5967 27.9182 40.6367C27.4915 41.277 26.8857 41.6465 26.1392 41.7981C26.1039 41.8027 26.0685 41.8066 26.033 41.8095C25.9974 41.8126 25.9618 41.8147 25.9262 41.8161C25.8905 41.8174 25.8548 41.8182 25.8192 41.8182C25.7835 41.818 25.7479 41.8171 25.7123 41.8154C25.6767 41.8136 25.6411 41.8112 25.6055 41.808C25.57 41.8049 25.5346 41.8008 25.4992 41.796C25.4639 41.7909 25.4286 41.7855 25.3936 41.7791C25.3586 41.7727 25.3238 41.7655 25.2888 41.7576C25.2541 41.7497 25.2195 41.7412 25.185 41.7319C25.1507 41.7225 25.1165 41.7126 25.0824 41.7013C25.0483 41.6903 25.0147 41.6786 24.9813 41.6663C24.9478 41.654 24.9147 41.6409 24.8816 41.627C24.8488 41.6132 24.8162 41.5986 24.7839 41.5834C24.7518 41.5681 24.7197 41.5522 24.6883 41.5356C24.6568 41.5191 24.6256 41.5015 24.5949 41.4835C24.5642 41.4655 24.5339 41.4468 24.5039 41.4273C24.4655 41.4022 24.4279 41.3759 24.3908 41.3488C24.3538 41.3217 24.3173 41.2937 24.2818 41.2648C24.2462 41.2362 24.2112 41.2062 24.177 41.1756C24.1427 41.145 24.1092 41.1135 24.0767 41.0814C24.0441 41.0493 24.0123 41.0163 23.9811 40.9823C23.9499 40.9485 23.9198 40.914 23.8907 40.8788C23.8615 40.8435 23.8329 40.8075 23.8055 40.7708C23.7778 40.7338 23.7513 40.6967 23.7256 40.6586C23.6998 40.6207 23.6752 40.5819 23.6514 40.5426C23.6277 40.5034 23.6049 40.4635 23.5831 40.4232C23.5612 40.3827 23.5403 40.3419 23.5209 40.3005C23.5011 40.2591 23.4824 40.2171 23.4647 40.1749C23.4469 40.1325 23.4303 40.09 23.4148 40.0466C23.3991 40.0036 23.3846 39.96 23.3711 39.9162C23.3577 39.8722 23.3454 39.8281 23.3341 39.7835C23.3227 39.7389 23.3127 39.6943 23.3035 39.6493C23.1457 38.8644 23.2895 38.0195 23.7411 37.3543C24.1736 36.7171 24.7579 36.3571 25.509 36.218L25.5097 36.2182Z" fill="#0B1F45"/>
<path d="M25.6552 37.7821C25.8692 37.7648 26.0775 37.7879 26.2729 37.8807C26.5789 38.0259 26.7992 38.3092 26.9017 38.6283C26.9081 38.6483 26.9138 38.6682 26.9192 38.6883C26.9245 38.7085 26.9292 38.7288 26.9338 38.7492C26.938 38.7696 26.942 38.79 26.9452 38.8108C26.9487 38.8315 26.9514 38.852 26.9537 38.8727C26.956 38.8936 26.9578 38.9144 26.959 38.9353C26.9604 38.956 26.9612 38.977 26.9613 38.9979C26.9615 39.0187 26.9613 39.0396 26.9606 39.0604C26.9598 39.0813 26.9584 39.1021 26.9566 39.123C26.9548 39.1438 26.9525 39.1644 26.9496 39.1852C26.9467 39.2059 26.9434 39.2266 26.9396 39.2471C26.9359 39.2678 26.9313 39.2879 26.9263 39.3085C26.9213 39.3287 26.9163 39.349 26.9102 39.3689C26.9042 39.3888 26.8979 39.4088 26.8909 39.4286C26.884 39.4482 26.8765 39.4678 26.8688 39.4872C26.8609 39.5065 26.8525 39.5257 26.8438 39.5445C26.8347 39.5633 26.8257 39.5821 26.8158 39.6007C26.6493 39.9195 26.3877 40.1061 26.0503 40.2084C25.7692 40.2364 25.5278 40.2198 25.2779 40.0701C25.0157 39.9132 24.8327 39.6407 24.7595 39.3467C24.6737 39.0012 24.7231 38.6082 24.9105 38.3038C25.0875 38.0166 25.336 37.8626 25.6552 37.7821Z" fill="#FEFEFE"/>
</g>
<defs>
<linearGradient id="paint0_linear_121_192" x1="-16.5032" y1="58.0938" x2="104.588" y2="-37.3112" gradientUnits="userSpaceOnUse">
<stop stop-color="#F58634"/>
<stop offset="1" stop-color="#FEFEFE"/>
</linearGradient>
<linearGradient id="paint1_linear_121_192" x1="13.3297" y1="19.0606" x2="38.6224" y2="5.9051" gradientUnits="userSpaceOnUse">
<stop stop-color="#00AFEF"/>
<stop offset="1" stop-color="#B2D5FF"/>
</linearGradient>
<clipPath id="clip0_121_192">
<rect width="153.578" height="44" fill="white"/>
</clipPath>
</defs>
</svg>
