<svg width="73" height="70" viewBox="0 0 73 70" fill="none" xmlns="http://www.w3.org/2000/svg">
<path d="M43.2802 18.1323C45.243 18.9363 47.089 19.9916 48.701 21.3903C49.411 22.0017 50.0541 22.7219 50.714 23.4003L43.2885 23.4255V18.1407L43.2802 18.1323Z" fill="#0B7EBE"/>
<path d="M37.6756 42.9565H40.9582C41.0417 43.1324 40.9916 43.4758 40.9916 43.6768L40.9832 45.6366L40.9665 53.8945C40.8162 54.0453 40.5823 54.0704 40.3735 54.1207L37.6255 54.5478L37.6673 42.9565H37.6756Z" fill="#0B7EBE"/>
<path d="M37.7092 31.34L54.3143 31.3316C54.5648 32.4958 54.6066 33.6515 54.6567 34.8408L37.7176 34.8324L37.7092 31.3484V31.34Z" fill="#052656"/>
<path d="M37.6842 37.1524L54.5983 37.1775C54.5983 38.1993 54.2976 39.3048 54.0971 40.3098L53.9718 40.8123L37.751 40.8207L37.6926 37.1607L37.6842 37.1524Z" fill="#052656"/>
<path d="M43.2801 42.9734H53.2615C52.2759 45.3268 51.0313 47.3703 49.2522 49.2045C47.59 50.8963 45.5269 52.4457 43.2717 53.2497L43.2801 42.9734Z" fill="#0B7EBE"/>
<path d="M37.7675 16.8259L41.0501 17.3703L41.0334 25.7874L52.2426 25.8209C52.8189 26.8175 53.3284 27.923 53.6458 29.037L53.4788 29.1207L37.7424 29.1458L37.7675 16.8343V16.8259Z" fill="#0B7EBE"/>
<path d="M22.3485 50.8542L35.0529 63.953L35.0362 69.9413L34.9526 69.9999C34.4348 69.9748 34.1758 69.8659 33.8 69.5141L31.7619 67.3952L23.4093 58.9279L22.6492 58.1238C22.6074 58.082 22.4404 57.9396 22.432 57.8893C22.3986 57.7637 22.4237 57.5292 22.4237 57.4036L22.4153 56.1557L22.3569 50.8709L22.3485 50.8542Z" fill="#054B7F"/>
<path d="M34.9943 0.234497L35.0945 0.284748L35.1196 1.59966V6.06364C35.1196 6.27302 35.178 6.87604 35.1112 7.04354C35.0444 7.1943 34.8606 7.35343 34.7521 7.47905L33.85 8.41708L28.4876 13.8945L22.4069 20.1675C22.315 20.1675 22.315 20.1507 22.2482 20.1005L22.2565 13.1323L34.9943 0.242872V0.234497Z" fill="#054B7F"/>
<path d="M50.714 50.896L50.8644 50.9295L50.8811 51.164V56.6665V57.6799C50.8811 57.7386 50.8978 57.9228 50.8811 57.9647C50.8393 58.0568 50.6472 58.2411 50.572 58.3164L42.4031 66.5995L40.457 68.5761C40.0644 68.9781 39.6635 69.4471 39.2041 69.7737C38.9034 69.9831 38.5776 69.9747 38.2268 69.9831L38.0765 69.8994L38.0681 63.9362L50.714 50.8876V50.896Z" fill="#052656"/>
<path d="M38.0183 0L44.6837 6.77554L49.7788 11.9849L50.6141 12.8559C50.6725 12.9146 50.8312 13.0402 50.8646 13.1156C50.8897 13.1742 50.873 13.3752 50.873 13.4422L50.8814 14.5394V20.134L50.7644 20.2429L39.5301 8.72697L38.3942 7.57956C38.3106 7.49581 38.0935 7.32831 38.0517 7.23618C38.0016 7.1273 38.0183 6.83417 38.0183 6.71692V5.46064V0.00837521V0Z" fill="#052656"/>
<path d="M29.5148 18.1825C29.6735 18.1406 29.6902 18.1155 29.8489 18.1825L29.874 19.0786L29.8907 25.4354C29.8823 26.3064 29.9826 27.3701 29.7988 28.216C29.6318 28.9614 29.1223 29.7905 28.5877 30.3349C28.0448 30.8877 27.2763 31.3316 26.5246 31.5074C25.6476 31.7084 24.5534 31.5828 23.6513 31.5828L18.8652 31.5912C18.6982 31.5828 18.6898 31.5912 18.5729 31.4823C18.7817 30.3684 19.1074 29.3131 19.5251 28.2579C20.8949 24.7905 23.3088 21.8089 26.4327 19.7821C27.4183 19.1456 28.4457 18.6515 29.5232 18.1825H29.5148Z" fill="#0B7EBE"/>
<path d="M19.6675 42.99L35.4205 42.9817L35.3788 54.5478C34.6688 54.5478 33.9421 54.4054 33.2405 54.2714C31.7454 53.9783 30.3087 53.5093 28.9306 52.856C24.7793 50.9046 21.2461 47.3535 19.6675 42.99Z" fill="#052656"/>
<path d="M63.6355 49.5395L68.0958 49.5311L54.481 63.4759L52.2258 65.7707V53.4591V50.6199C52.2258 50.3268 52.159 49.8578 52.2592 49.5898L63.6438 49.5395H63.6355Z" fill="#052656"/>
<path d="M5.19186 49.5395L20.9199 49.5311L20.9032 65.7958L5.15845 49.6735L5.19186 49.5395Z" fill="#052656"/>
<path d="M20.7613 5.25964C20.8114 5.27639 20.8532 5.30152 20.9033 5.32665L20.9117 21.9179L4.92474 21.8509C4.7911 21.8677 4.8078 21.8677 4.69922 21.7839L20.7697 5.25964H20.7613Z" fill="#054B7F"/>
<path d="M52.2342 5.06689L68.8142 21.9681H52.2258L52.2342 5.06689Z" fill="#052656"/>
<path d="M12.2834 23.4505L19.191 23.4254L8.44951 34.4974C8.06529 34.9413 7.70613 35.5025 7.77295 36.1139C7.81471 36.5577 8.12376 37.0016 8.39939 37.3366C9.00078 38.0569 9.72746 38.7102 10.3873 39.3802L13.5864 42.68L16.9358 46.1222C17.6124 46.8174 18.2722 47.5544 19.0072 48.1825L18.2639 48.2077L12.0996 48.216L0.163696 35.9631L12.275 23.4673L12.2834 23.4505Z" fill="#054B7F"/>
<path d="M53.9716 23.459L59.2672 23.4758C59.7182 23.4758 60.4115 23.3753 60.8124 23.4758C60.8709 23.4925 61.063 23.7103 61.1214 23.7605L62.1405 24.7991L68.1961 31.0889L73.0407 35.9967L61.3553 48.0989C60.9043 48.3418 54.8987 48.191 53.8881 48.191L60.2528 41.6416L65.0555 36.7589C65.2059 36.5914 65.3813 36.4071 65.4231 36.181C65.4732 35.8711 65.4314 35.5696 65.256 35.3016C65.0054 34.9247 64.6546 34.5981 64.3456 34.2714L62.7335 32.588L56.018 25.6868C55.3581 24.975 54.6147 24.2798 54.0217 23.5177L53.9716 23.4507V23.459Z" fill="#052656"/>
<path d="M35.1698 16.8844C35.3118 16.8844 35.3285 16.8676 35.4288 16.9681L35.3786 40.8123L23.4511 40.8207C22.7411 40.8207 19.1077 40.9464 18.8404 40.7705L18.807 40.5695C18.2975 38.35 18.0887 36.2479 18.239 33.9698H23.5263C24.5536 33.9698 25.6478 34.0284 26.6668 33.8274C27.5773 33.6432 28.3875 33.2998 29.1476 32.7638C30.6594 31.7001 31.7369 30.0251 31.9708 28.1742C32.1128 27.0686 32.0376 25.8877 32.0376 24.7738L32.0292 19.7487C32.0292 19.0201 31.9207 18.1239 32.0459 17.412L35.1782 16.8928L35.1698 16.8844Z" fill="#052656"/>
</svg>
