<svg width="192" height="50" viewBox="0 0 192 50" fill="none" xmlns="http://www.w3.org/2000/svg">
<g clip-path="url(#clip0_20_127)">
<path fill-rule="evenodd" clip-rule="evenodd" d="M36.2775 0C34.2038 0 32.9726 2.34308 34.1714 4.06786L64.7261 47.838C65.7629 49.3024 67.3506 50.0509 68.9383 50.0509H133.126C131.538 50.0509 129.95 49.3024 128.913 47.838L97.8728 3.28683C96.4471 1.23663 94.0818 0 91.5545 0H36.2775Z" fill="url(#paint0_linear_20_127)"/>
<path d="M95.9935 6.89841H151.271C153.344 6.89841 154.575 9.24149 153.377 10.9663L134.811 37.6189C133.385 39.6691 131.02 40.9057 128.492 40.9057H73.2153C71.1416 40.9057 69.9103 38.5626 71.1092 36.8378L89.6752 10.1852C91.1333 8.13503 93.4986 6.89841 95.9935 6.89841Z" fill="white"/>
<path d="M50.7612 10.6401C49.9512 10.0543 49.7568 8.94787 50.3076 8.13429L50.8584 7.35327C51.4416 6.53969 52.5433 6.34444 53.3533 6.89767C54.1634 7.48344 54.3578 8.58989 53.807 9.40347L53.2561 10.1845C52.7053 10.9981 51.5712 11.2259 50.7612 10.6401Z" fill="white"/>
<path d="M55.5896 17.5717C54.7795 16.9859 54.5851 15.8795 55.136 15.0659L60.5146 7.35327C61.0978 6.53969 62.1995 6.34444 63.0095 6.89767C63.8196 7.48344 64.014 8.58989 63.4631 9.40347L58.0845 17.1161C57.5337 17.9297 56.3996 18.1249 55.5896 17.5717Z" fill="white"/>
<path d="M60.4164 24.5033C59.6063 23.9176 59.4119 22.8111 59.9627 21.9975L70.1692 7.35327C70.7524 6.53969 71.8541 6.34444 72.6641 6.89767C73.4742 7.48344 73.6686 8.58989 73.1178 9.40347L62.9113 24.0477C62.3605 24.8613 61.2264 25.0566 60.4164 24.5033Z" fill="white"/>
<path d="M65.2442 31.4358C64.4342 30.85 64.2398 29.7435 64.7906 28.93L79.8249 7.38659C80.4082 6.57302 81.5098 6.37776 82.3198 6.93099C83.1299 7.51676 83.3243 8.62322 82.7735 9.43679L67.7392 30.9802C67.1883 31.7937 66.0543 31.989 65.2442 31.4358Z" fill="white"/>
<path fill-rule="evenodd" clip-rule="evenodd" d="M100.822 13.8294C98.327 13.8294 95.9616 15.0661 94.5036 17.1163L73.1186 47.8367C72.0817 49.3011 70.494 50.0496 68.9064 50.0496H133.094C134.681 50.0496 136.269 49.3011 137.306 47.8367L158.173 17.8973C159.371 16.2051 158.14 13.8294 156.066 13.8294H100.822Z" fill="url(#paint1_linear_20_127)"/>
<path d="M105.229 13.8294L128.914 47.8367C129.951 49.3011 131.539 50.0496 133.126 50.0496C134.714 50.0496 136.302 49.3011 137.339 47.8367L158.205 17.8973C159.404 16.2051 158.173 13.8294 156.099 13.8294H105.229Z" fill="#00E67E"/>
</g>
<defs>
<linearGradient id="paint0_linear_20_127" x1="34.4391" y1="25.0057" x2="133.126" y2="25.0057" gradientUnits="userSpaceOnUse">
<stop stop-color="#00BCAD"/>
<stop offset="1" stop-color="#00E67E"/>
</linearGradient>
<linearGradient id="paint1_linear_20_127" x1="68.9237" y1="31.9297" x2="157.954" y2="31.9297" gradientUnits="userSpaceOnUse">
<stop stop-color="#A769FB"/>
<stop offset="1" stop-color="#00CDD8"/>
</linearGradient>
<clipPath id="clip0_20_127">
<rect width="198" height="50" fill="white" transform="translate(-3)"/>
</clipPath>
</defs>
</svg>
